<svg width="130" height="24" viewBox="0 0 130 24" fill="none" xmlns="http://www.w3.org/2000/svg">
<g clip-path="url(#clip0_1_632)">
<g filter="url(#filter0_d_1_632)">
<path d="M111.475 3.10485V4.90334H99.2362V3.10485H111.475ZM102.015 1.03659H107.651V9.08482C107.651 9.30588 107.73 9.47824 107.889 9.60188C108.048 9.72178 108.268 9.80609 108.551 9.8548C108.842 9.90351 109.177 9.92786 109.556 9.92786C109.821 9.92786 110.085 9.91849 110.35 9.89976C110.615 9.87728 110.818 9.86042 110.959 9.84918L111.845 11.6308C111.563 11.6683 111.166 11.7114 110.654 11.7601C110.143 11.8125 109.521 11.8444 108.789 11.8556C107.431 11.8781 106.24 11.8013 105.217 11.6252C104.202 11.4491 103.413 11.1756 102.848 10.8046C102.284 10.4337 102.006 9.96533 102.015 9.39956V1.03659Z" fill="#921AAF" fill-opacity="0.4"/>
<path d="M111.475 3.10485V4.90334H99.2362V3.10485H111.475ZM102.015 1.03659H107.651V9.08482C107.651 9.30588 107.73 9.47824 107.889 9.60188C108.048 9.72178 108.268 9.80609 108.551 9.8548C108.842 9.90351 109.177 9.92786 109.556 9.92786C109.821 9.92786 110.085 9.91849 110.35 9.89976C110.615 9.87728 110.818 9.86042 110.959 9.84918L111.845 11.6308C111.563 11.6683 111.166 11.7114 110.654 11.7601C110.143 11.8125 109.521 11.8444 108.789 11.8556C107.431 11.8781 106.24 11.8013 105.217 11.6252C104.202 11.4491 103.413 11.1756 102.848 10.8046C102.284 10.4337 102.006 9.96533 102.015 9.39956V1.03659Z" fill="#1A23BB" fill-opacity="0.3"/>
<path d="M111.475 3.10485V4.90334H99.2362V3.10485H111.475ZM102.015 1.03659H107.651V9.08482C107.651 9.30588 107.73 9.47824 107.889 9.60188C108.048 9.72178 108.268 9.80609 108.551 9.8548C108.842 9.90351 109.177 9.92786 109.556 9.92786C109.821 9.92786 110.085 9.91849 110.35 9.89976C110.615 9.87728 110.818 9.86042 110.959 9.84918L111.845 11.6308C111.563 11.6683 111.166 11.7114 110.654 11.7601C110.143 11.8125 109.521 11.8444 108.789 11.8556C107.431 11.8781 106.24 11.8013 105.217 11.6252C104.202 11.4491 103.413 11.1756 102.848 10.8046C102.284 10.4337 102.006 9.96533 102.015 9.39956V1.03659Z" fill="black" fill-opacity="0.2"/>
<path d="M83.1243 6.74677V11.7376H77.4879V3.10484H82.8596V4.62793H83.0978C83.5477 4.12585 84.3018 3.72869 85.3603 3.43643C86.4187 3.14043 87.7021 2.99243 89.2105 2.99243C90.6218 2.99243 91.8522 3.12357 92.9019 3.38585C93.9515 3.64813 94.7674 4.02281 95.3496 4.5099C95.9317 4.99325 96.2228 5.57026 96.2228 6.24095V11.7376H90.5865V6.66809C90.5953 6.13978 90.2778 5.72763 89.6339 5.43163C88.9899 5.13188 88.1035 4.98201 86.9744 4.98201C86.2159 4.98201 85.5455 5.05132 84.9634 5.18996C84.39 5.32859 83.9402 5.53092 83.6138 5.79695C83.2963 6.05923 83.1331 6.37584 83.1243 6.74677Z" fill="#921AAF" fill-opacity="0.4"/>
<path d="M83.1243 6.74677V11.7376H77.4879V3.10484H82.8596V4.62793H83.0978C83.5477 4.12585 84.3018 3.72869 85.3603 3.43643C86.4187 3.14043 87.7021 2.99243 89.2105 2.99243C90.6218 2.99243 91.8522 3.12357 92.9019 3.38585C93.9515 3.64813 94.7674 4.02281 95.3496 4.5099C95.9317 4.99325 96.2228 5.57026 96.2228 6.24095V11.7376H90.5865V6.66809C90.5953 6.13978 90.2778 5.72763 89.6339 5.43163C88.9899 5.13188 88.1035 4.98201 86.9744 4.98201C86.2159 4.98201 85.5455 5.05132 84.9634 5.18996C84.39 5.32859 83.9402 5.53092 83.6138 5.79695C83.2963 6.05923 83.1331 6.37584 83.1243 6.74677Z" fill="#1A23BB" fill-opacity="0.3"/>
<path d="M83.1243 6.74677V11.7376H77.4879V3.10484H82.8596V4.62793H83.0978C83.5477 4.12585 84.3018 3.72869 85.3603 3.43643C86.4187 3.14043 87.7021 2.99243 89.2105 2.99243C90.6218 2.99243 91.8522 3.12357 92.9019 3.38585C93.9515 3.64813 94.7674 4.02281 95.3496 4.5099C95.9317 4.99325 96.2228 5.57026 96.2228 6.24095V11.7376H90.5865V6.66809C90.5953 6.13978 90.2778 5.72763 89.6339 5.43163C88.9899 5.13188 88.1035 4.98201 86.9744 4.98201C86.2159 4.98201 85.5455 5.05132 84.9634 5.18996C84.39 5.32859 83.9402 5.53092 83.6138 5.79695C83.2963 6.05923 83.1331 6.37584 83.1243 6.74677Z" fill="black" fill-opacity="0.2"/>
<path d="M61.6704 11.9006C60.3738 11.9006 59.2183 11.805 58.2039 11.6139C57.1896 11.4191 56.3869 11.1325 55.7959 10.754C55.2137 10.3718 54.9227 9.896 54.9227 9.32648C54.9227 8.84688 55.13 8.4441 55.5445 8.11812C55.9591 7.79214 56.5236 7.52986 57.2381 7.33128C57.9525 7.1327 58.764 6.98282 59.6726 6.88166C60.5899 6.78049 61.5513 6.7093 62.5569 6.66809C63.7388 6.61563 64.6915 6.56692 65.4148 6.52196C66.138 6.47325 66.6629 6.40206 66.9892 6.30839C67.3156 6.21472 67.4788 6.07609 67.4788 5.89249V5.85877C67.4788 5.50282 67.2141 5.22743 66.6849 5.03259C66.1645 4.83775 65.4236 4.74034 64.4621 4.74034C63.4478 4.74034 62.6407 4.83588 62.0409 5.02697C61.4411 5.21431 61.0442 5.45036 60.8501 5.73512L55.6371 5.55528C55.9018 5.03072 56.4222 4.57735 57.1984 4.19517C57.9746 3.80924 58.9757 3.51324 60.2018 3.30717C61.4367 3.09734 62.8656 2.99243 64.4886 2.99243C65.6176 2.99243 66.6981 3.04863 67.7302 3.16104C68.771 3.27345 69.6927 3.44767 70.4954 3.68372C71.3069 3.91978 71.9464 4.22327 72.4139 4.59421C72.8814 4.9614 73.1151 5.40165 73.1151 5.91497V11.7376H67.7698V10.5405H67.6111C67.2847 10.8102 66.8481 11.0482 66.3012 11.2542C65.7543 11.4566 65.0972 11.6158 64.3298 11.732C63.5624 11.8444 62.676 11.9006 61.6704 11.9006ZM63.2846 10.2482C64.1137 10.2482 64.8458 10.1789 65.4809 10.0403C66.116 9.89787 66.6143 9.70678 66.976 9.46698C67.3376 9.22719 67.5185 8.95554 67.5185 8.65205V7.73594C67.3421 7.78465 67.0995 7.82961 66.7908 7.87083C66.4909 7.9083 66.1513 7.94389 65.772 7.97761C65.3927 8.00759 65.0134 8.03569 64.6341 8.06192C64.2548 8.0844 63.9108 8.10501 63.6021 8.12374C62.9406 8.16496 62.3628 8.23052 61.8689 8.32045C61.3749 8.41037 60.9912 8.53215 60.7178 8.68577C60.4444 8.83564 60.3076 9.02298 60.3076 9.24779C60.3076 9.57377 60.5855 9.82294 61.1412 9.99529C61.7057 10.1639 62.4202 10.2482 63.2846 10.2482Z" fill="#921AAF" fill-opacity="0.4"/>
<path d="M61.6704 11.9006C60.3738 11.9006 59.2183 11.805 58.2039 11.6139C57.1896 11.4191 56.3869 11.1325 55.7959 10.754C55.2137 10.3718 54.9227 9.896 54.9227 9.32648C54.9227 8.84688 55.13 8.4441 55.5445 8.11812C55.9591 7.79214 56.5236 7.52986 57.2381 7.33128C57.9525 7.1327 58.764 6.98282 59.6726 6.88166C60.5899 6.78049 61.5513 6.7093 62.5569 6.66809C63.7388 6.61563 64.6915 6.56692 65.4148 6.52196C66.138 6.47325 66.6629 6.40206 66.9892 6.30839C67.3156 6.21472 67.4788 6.07609 67.4788 5.89249V5.85877C67.4788 5.50282 67.2141 5.22743 66.6849 5.03259C66.1645 4.83775 65.4236 4.74034 64.4621 4.74034C63.4478 4.74034 62.6407 4.83588 62.0409 5.02697C61.4411 5.21431 61.0442 5.45036 60.8501 5.73512L55.6371 5.55528C55.9018 5.03072 56.4222 4.57735 57.1984 4.19517C57.9746 3.80924 58.9757 3.51324 60.2018 3.30717C61.4367 3.09734 62.8656 2.99243 64.4886 2.99243C65.6176 2.99243 66.6981 3.04863 67.7302 3.16104C68.771 3.27345 69.6927 3.44767 70.4954 3.68372C71.3069 3.91978 71.9464 4.22327 72.4139 4.59421C72.8814 4.9614 73.1151 5.40165 73.1151 5.91497V11.7376H67.7698V10.5405H67.6111C67.2847 10.8102 66.8481 11.0482 66.3012 11.2542C65.7543 11.4566 65.0972 11.6158 64.3298 11.732C63.5624 11.8444 62.676 11.9006 61.6704 11.9006ZM63.2846 10.2482C64.1137 10.2482 64.8458 10.1789 65.4809 10.0403C66.116 9.89787 66.6143 9.70678 66.976 9.46698C67.3376 9.22719 67.5185 8.95554 67.5185 8.65205V7.73594C67.3421 7.78465 67.0995 7.82961 66.7908 7.87083C66.4909 7.9083 66.1513 7.94389 65.772 7.97761C65.3927 8.00759 65.0134 8.03569 64.6341 8.06192C64.2548 8.0844 63.9108 8.10501 63.6021 8.12374C62.9406 8.16496 62.3628 8.23052 61.8689 8.32045C61.3749 8.41037 60.9912 8.53215 60.7178 8.68577C60.4444 8.83564 60.3076 9.02298 60.3076 9.24779C60.3076 9.57377 60.5855 9.82294 61.1412 9.99529C61.7057 10.1639 62.4202 10.2482 63.2846 10.2482Z" fill="#1A23BB" fill-opacity="0.3"/>
<path d="M61.6704 11.9006C60.3738 11.9006 59.2183 11.805 58.2039 11.6139C57.1896 11.4191 56.3869 11.1325 55.7959 10.754C55.2137 10.3718 54.9227 9.896 54.9227 9.32648C54.9227 8.84688 55.13 8.4441 55.5445 8.11812C55.9591 7.79214 56.5236 7.52986 57.2381 7.33128C57.9525 7.1327 58.764 6.98282 59.6726 6.88166C60.5899 6.78049 61.5513 6.7093 62.5569 6.66809C63.7388 6.61563 64.6915 6.56692 65.4148 6.52196C66.138 6.47325 66.6629 6.40206 66.9892 6.30839C67.3156 6.21472 67.4788 6.07609 67.4788 5.89249V5.85877C67.4788 5.50282 67.2141 5.22743 66.6849 5.03259C66.1645 4.83775 65.4236 4.74034 64.4621 4.74034C63.4478 4.74034 62.6407 4.83588 62.0409 5.02697C61.4411 5.21431 61.0442 5.45036 60.8501 5.73512L55.6371 5.55528C55.9018 5.03072 56.4222 4.57735 57.1984 4.19517C57.9746 3.80924 58.9757 3.51324 60.2018 3.30717C61.4367 3.09734 62.8656 2.99243 64.4886 2.99243C65.6176 2.99243 66.6981 3.04863 67.7302 3.16104C68.771 3.27345 69.6927 3.44767 70.4954 3.68372C71.3069 3.91978 71.9464 4.22327 72.4139 4.59421C72.8814 4.9614 73.1151 5.40165 73.1151 5.91497V11.7376H67.7698V10.5405H67.6111C67.2847 10.8102 66.8481 11.0482 66.3012 11.2542C65.7543 11.4566 65.0972 11.6158 64.3298 11.732C63.5624 11.8444 62.676 11.9006 61.6704 11.9006ZM63.2846 10.2482C64.1137 10.2482 64.8458 10.1789 65.4809 10.0403C66.116 9.89787 66.6143 9.70678 66.976 9.46698C67.3376 9.22719 67.5185 8.95554 67.5185 8.65205V7.73594C67.3421 7.78465 67.0995 7.82961 66.7908 7.87083C66.4909 7.9083 66.1513 7.94389 65.772 7.97761C65.3927 8.00759 65.0134 8.03569 64.6341 8.06192C64.2548 8.0844 63.9108 8.10501 63.6021 8.12374C62.9406 8.16496 62.3628 8.23052 61.8689 8.32045C61.3749 8.41037 60.9912 8.53215 60.7178 8.68577C60.4444 8.83564 60.3076 9.02298 60.3076 9.24779C60.3076 9.57377 60.5855 9.82294 61.1412 9.99529C61.7057 10.1639 62.4202 10.2482 63.2846 10.2482Z" fill="black" fill-opacity="0.2"/>
<path d="M53.5367 3.10484L46.4317 11.7376H40.0809L32.976 3.10484H38.9298L43.1505 9.28152H43.3622L47.5696 3.10484H53.5367Z" fill="#921AAF" fill-opacity="0.4"/>
<path d="M53.5367 3.10484L46.4317 11.7376H40.0809L32.976 3.10484H38.9298L43.1505 9.28152H43.3622L47.5696 3.10484H53.5367Z" fill="#1A23BB" fill-opacity="0.3"/>
<path d="M53.5367 3.10484L46.4317 11.7376H40.0809L32.976 3.10484H38.9298L43.1505 9.28152H43.3622L47.5696 3.10484H53.5367Z" fill="black" fill-opacity="0.2"/>
<path d="M10.5 11.7376V0.227264H16.229V5.30237H16.5862L26.3374 0.227264H33.2042L23.1487 5.38105L33.3233 11.7376H26.4697L19.0471 7.00531L16.229 8.46658V11.7376H10.5Z" fill="#921AAF" fill-opacity="0.4"/>
<path d="M10.5 11.7376V0.227264H16.229V5.30237H16.5862L26.3374 0.227264H33.2042L23.1487 5.38105L33.3233 11.7376H26.4697L19.0471 7.00531L16.229 8.46658V11.7376H10.5Z" fill="#1A23BB" fill-opacity="0.3"/>
<path d="M10.5 11.7376V0.227264H16.229V5.30237H16.5862L26.3374 0.227264H33.2042L23.1487 5.38105L33.3233 11.7376H26.4697L19.0471 7.00531L16.229 8.46658V11.7376H10.5Z" fill="black" fill-opacity="0.2"/>
<path d="M109.291 14.2398V12.2273H129.5V14.2398H121.967V23.7727H116.824V14.2398H109.291Z" fill="#921AAF" fill-opacity="0.6"/>
<path d="M88.0249 23.7727V12.2273H97.7328C99.5911 12.2273 101.177 12.3832 102.491 12.6952C103.812 13.0034 104.818 13.4412 105.506 14.0087C106.203 14.5724 106.552 15.2358 106.552 15.9987C106.552 16.7654 106.199 17.425 105.494 17.9774C104.79 18.5262 103.768 18.9471 102.431 19.2402C101.101 19.5334 99.491 19.6799 97.6007 19.6799H91.1007V17.7181H96.7596C97.7529 17.7181 98.5779 17.6542 99.2347 17.5264C99.8915 17.3987 100.38 17.207 100.7 16.9514C101.029 16.6959 101.193 16.3783 101.193 15.9987C101.193 15.6154 101.029 15.2921 100.7 15.0291C100.38 14.766 99.8875 14.5668 99.2227 14.4315C98.5659 14.2924 97.7368 14.2229 96.7356 14.2229H93.2273V23.7727H88.0249ZM101.313 18.5186L107.429 23.7727H101.686L95.7023 18.5186H101.313Z" fill="#921AAF" fill-opacity="0.6"/>
<path d="M67.3083 23.7727V12.2273H83.8888V14.2398H72.5108V16.9909H83.0357V19.0035H72.5108V21.7602H83.9368V23.7727H67.3083Z" fill="#921AAF" fill-opacity="0.6"/>
<path d="M45.4023 23.7727V12.2273H55.1103C56.9766 12.2273 58.5666 12.3945 59.8802 12.729C61.1938 13.0597 62.195 13.5201 62.8839 14.1102C63.5808 14.6965 63.9292 15.373 63.9292 16.1396C63.9292 16.9063 63.5767 17.5828 62.8719 18.1691C62.167 18.7554 61.1457 19.212 59.8081 19.539C58.4785 19.866 56.8685 20.0295 54.9781 20.0295H48.7905V18.0733H54.1371C55.1383 18.0733 55.9634 17.9925 56.6122 17.8309C57.269 17.6655 57.7576 17.4381 58.078 17.1487C58.4064 16.8556 58.5706 16.5192 58.5706 16.1396C58.5706 15.7563 58.4064 15.4218 58.078 15.1362C57.7576 14.8468 57.269 14.6232 56.6122 14.4653C55.9553 14.3037 55.1223 14.2229 54.1131 14.2229H50.6048V23.7727H45.4023Z" fill="#921AAF" fill-opacity="0.6"/>
<path d="M26.0945 12.2273L31.0567 16.1622H31.2489L36.235 12.2273H42.1103L34.601 18L42.2785 23.7727H36.2951L31.2489 19.8322H31.0567L26.0104 23.7727H20.0511L27.7526 18L20.1953 12.2273H26.0945Z" fill="#921AAF" fill-opacity="0.6"/>
<path d="M0.5 23.7727V12.2273H17.0804V14.2398H5.70241V16.9909H16.2274V19.0035H5.70241V21.7602H17.1285V23.7727H0.5Z" fill="#921AAF" fill-opacity="0.6"/>
</g>
</g>
<defs>
<filter id="filter0_d_1_632" x="-3.5" y="0.227264" width="137" height="31.5454" filterUnits="userSpaceOnUse" color-interpolation-filters="sRGB">
<feFlood flood-opacity="0" result="BackgroundImageFix"/>
<feColorMatrix in="SourceAlpha" type="matrix" values="0 0 0 0 0 0 0 0 0 0 0 0 0 0 0 0 0 0 127 0" result="hardAlpha"/>
<feOffset dy="4"/>
<feGaussianBlur stdDeviation="2"/>
<feComposite in2="hardAlpha" operator="out"/>
<feColorMatrix type="matrix" values="0 0 0 0 0 0 0 0 0 0 0 0 0 0 0 0 0 0 0.25 0"/>
<feBlend mode="normal" in2="BackgroundImageFix" result="effect1_dropShadow_1_632"/>
<feBlend mode="normal" in="SourceGraphic" in2="effect1_dropShadow_1_632" result="shape"/>
</filter>
<clipPath id="clip0_1_632">
<rect width="129" height="23.5455" fill="white" transform="translate(0.5 0.227264)"/>
</clipPath>
</defs>
</svg>
