<svg width="30" height="34" viewBox="0 0 30 34" fill="none" xmlns="http://www.w3.org/2000/svg">
<g clip-path="url(#clip0_7_906)">
<path d="M26 20.4V25.4H2V9.39999H12V7.39999H2C1.46957 7.39999 0.960859 7.6107 0.585786 7.98578C0.210714 8.36085 0 8.86956 0 9.39999V25.4C0 25.9304 0.210714 26.4391 0.585786 26.8142C0.960859 27.1893 1.46957 27.4 2 27.4H10V31.4H6V33.4H22V31.4H18V27.4H26C26.5304 27.4 27.0391 27.1893 27.4142 26.8142C27.7893 26.4391 28 25.9304 28 25.4V20.4H26ZM16 31.4H12V27.4H16V31.4Z" fill="#30303E"/>
<path d="M18.375 16.9833C18.7662 16.9833 19.0833 16.6662 19.0833 16.275C19.0833 15.8838 18.7662 15.5666 18.375 15.5666C17.9838 15.5666 17.6666 15.8838 17.6666 16.275C17.6666 16.6662 17.9838 16.9833 18.375 16.9833Z" stroke="#E80303" stroke-width="2" stroke-linecap="round" stroke-linejoin="round"/>
<path d="M26.1667 16.9833C26.5579 16.9833 26.875 16.6662 26.875 16.275C26.875 15.8838 26.5579 15.5666 26.1667 15.5666C25.7755 15.5666 25.4584 15.8838 25.4584 16.275C25.4584 16.6662 25.7755 16.9833 26.1667 16.9833Z" stroke="#E80303" stroke-width="2" stroke-linecap="round" stroke-linejoin="round"/>
<path d="M12.7084 2.10837H15.5417L17.44 11.593C17.5048 11.9191 17.6822 12.212 17.9412 12.4205C18.2002 12.629 18.5243 12.7397 18.8567 12.7334H25.7417C26.0741 12.7397 26.3982 12.629 26.6572 12.4205C26.9162 12.212 27.0936 11.9191 27.1584 11.593L28.2917 5.65004H16.25" stroke="#E80303" stroke-width="2" stroke-linecap="round" stroke-linejoin="round"/>
</g>
<defs>
<clipPath id="clip0_7_906">
<rect width="30" height="33" fill="white" transform="translate(0 0.399994)"/>
</clipPath>
</defs>
</svg>
