<svg width="32" height="33" viewBox="0 0 32 33" fill="none" xmlns="http://www.w3.org/2000/svg">
<path d="M28 17.3V22.3H4V6.29999H14V4.29999H4C3.46957 4.29999 2.96086 4.5107 2.58579 4.88578C2.21071 5.26085 2 5.76956 2 6.29999V22.3C2 22.8304 2.21071 23.3391 2.58579 23.7142C2.96086 24.0893 3.46957 24.3 4 24.3H12V28.3H8V30.3H24V28.3H20V24.3H28C28.5304 24.3 29.0391 24.0893 29.4142 23.7142C29.7893 23.3391 30 22.8304 30 22.3V17.3H28ZM18 28.3H14V24.3H18V28.3Z" fill="#30303E"/>
<path d="M30 10.3V8.29999H27.899C27.77 7.67401 27.5215 7.0788 27.167 6.54699L28.657 5.05699L27.243 3.64299L25.753 5.13299C25.2212 4.7785 24.626 4.52996 24 4.40099V2.29999H22V4.40099C21.374 4.52996 20.7788 4.7785 20.247 5.13299L18.757 3.64299L17.343 5.05699L18.833 6.54699C18.4785 7.0788 18.23 7.67401 18.101 8.29999H16V10.3H18.101C18.23 10.926 18.4785 11.5212 18.833 12.053L17.343 13.543L18.757 14.957L20.247 13.467C20.7788 13.8215 21.374 14.07 22 14.199V16.3H24V14.199C24.626 14.07 25.2212 13.8215 25.753 13.467L27.243 14.957L28.657 13.543L27.167 12.053C27.5215 11.5212 27.77 10.926 27.899 10.3H30ZM23 12.3C22.4067 12.3 21.8266 12.1241 21.3333 11.7944C20.8399 11.4648 20.4554 10.9962 20.2284 10.4481C20.0013 9.89986 19.9419 9.29666 20.0576 8.71472C20.1734 8.13278 20.4591 7.59823 20.8787 7.17867C21.2982 6.75911 21.8328 6.47339 22.4147 6.35763C22.9967 6.24188 23.5999 6.30129 24.1481 6.52835C24.6962 6.75541 25.1648 7.13993 25.4944 7.63328C25.8241 8.12663 26 8.70665 26 9.29999C25.9992 10.0954 25.6829 10.858 25.1204 11.4204C24.558 11.9829 23.7954 12.2992 23 12.3Z" fill="#E80303"/>
</svg>
