<svg width="170" height="33" viewBox="0 0 170 33" fill="none" xmlns="http://www.w3.org/2000/svg">
<mask id="mask0_13_709" style="mask-type:luminance" maskUnits="userSpaceOnUse" x="0" y="1" width="48" height="31">
<path d="M47.4074 1H0V31.7404H47.4074V1Z" fill="white"/>
</mask>
<g mask="url(#mask0_13_709)">
<path fill-rule="evenodd" clip-rule="evenodd" d="M0 5.77861V8.83934H3.22395V24.9011H6.04631V5.77861H0ZM10.4528 24.9011H7.51512V4.18574H3.22395V1H10.4528V24.9011ZM25.1483 16.7835C24.9401 16.7835 23.8283 16.7835 23.6237 16.7553C23.2293 16.7243 22.8369 16.6677 22.4487 16.5859C22.1513 16.505 21.8623 16.3915 21.586 16.2472C21.0509 15.9323 20.6015 15.4704 20.283 14.9078C19.9644 14.3452 19.7877 13.7017 19.7708 13.0417C19.7538 12.3817 19.8971 11.7285 20.1863 11.1476C20.4756 10.5666 20.9005 10.0783 21.4186 9.73156C21.9367 9.38483 22.5297 9.19189 23.1382 9.17206C23.7468 9.15223 24.3494 9.30622 24.8857 9.61859C25.4221 9.93095 25.8733 10.3907 26.1942 10.9518C26.515 11.5129 26.6942 12.1556 26.7138 12.8155H29.5139C29.4948 11.6098 29.1808 10.4313 28.6039 9.40044C28.027 8.36959 27.208 7.52343 26.2306 6.94852C25.2532 6.3736 24.1525 6.09057 23.0411 6.12838C21.9298 6.16618 20.8476 6.52346 19.9054 7.16368C18.9631 7.80389 18.1946 8.70405 17.6784 9.77208C17.1622 10.8401 16.9169 12.0377 16.9676 13.2422C17.0183 14.4468 17.3631 15.6152 17.9668 16.6278C18.5705 17.6404 19.4114 18.461 20.4035 19.0055C20.7469 19.1956 21.1069 19.3483 21.4782 19.4612C22.1277 19.6312 22.7896 19.7405 23.4564 19.7878C23.6907 19.7878 24.8248 19.8201 25.0665 19.8201H47.4074V16.7835H25.1483ZM23.4564 21.7275C22.5525 21.6687 21.6566 21.5092 20.7828 21.2516C20.6341 21.2032 20.0168 20.9613 19.8606 20.8806C18.5494 20.2249 17.4244 19.1997 16.6028 17.9121C15.7812 16.6244 15.2931 15.1214 15.1894 13.5596C15.0857 11.9977 15.3701 10.4343 16.013 9.03229C16.656 7.63023 17.6339 6.44084 18.8449 5.58806C20.0559 4.73529 21.4556 4.25034 22.8982 4.18377C24.3408 4.1172 25.7735 4.47144 27.0469 5.20956C28.3203 5.94769 29.3879 7.04269 30.1383 8.38044C30.8888 9.7182 31.2946 11.2497 31.3136 12.8155H34.229C34.2115 10.712 33.6812 8.651 32.6917 6.84173C31.7022 5.03246 30.2888 3.53937 28.5951 2.51406C26.9014 1.48875 24.9877 0.967749 23.0483 1.00395C21.1088 1.04016 19.2128 1.63228 17.5526 2.7202C15.8925 3.80811 14.5273 5.35307 13.5959 7.1982C12.6644 9.04333 12.1997 11.1229 12.2491 13.2258C12.2984 15.3286 12.86 17.3799 13.8768 19.1713C14.8937 20.9626 16.3295 22.4303 18.0385 23.4252C18.6245 23.7446 19.2324 24.0143 19.8569 24.2317C20.9193 24.5566 22.0095 24.7633 23.1106 24.8487C23.4824 24.881 24.7467 24.8971 25.1186 24.8971H47.4074V21.7597H25.1483C24.8843 21.7597 23.7167 21.7597 23.4564 21.7275Z" fill="#F42C33"/>
</g>
<path fill-rule="evenodd" clip-rule="evenodd" d="M40.0149 5.03258C39.6975 5.02781 39.3884 4.92136 39.1266 4.72662C38.8647 4.53188 38.6618 4.25754 38.5434 3.93809C38.4249 3.61864 38.3962 3.26834 38.4608 2.93124C38.5254 2.59413 38.6805 2.28527 38.9066 2.04349C39.1326 1.80171 39.4195 1.63779 39.7312 1.57236C40.0429 1.50692 40.3655 1.54288 40.6584 1.67572C40.9514 1.80856 41.2015 2.03235 41.3775 2.31895C41.5534 2.60555 41.6473 2.94216 41.6474 3.28647C41.6474 3.51783 41.605 3.74688 41.5227 3.96032C41.4404 4.17376 41.3198 4.36733 41.1679 4.52979C41.016 4.69225 40.8359 4.82036 40.6379 4.90668C40.44 4.99299 40.2282 5.03579 40.0149 5.03258ZM40.0149 1.20969C39.5063 1.20647 39.0173 1.42193 38.6549 1.80891C38.2925 2.19589 38.0862 2.72284 38.0813 3.27438C38.0852 3.82922 38.2902 4.36013 38.6519 4.75248C39.0137 5.14482 39.5033 5.3671 40.0149 5.37132C40.2691 5.37239 40.521 5.31888 40.7561 5.21387C40.9911 5.10887 41.2047 4.95445 41.3844 4.75952C41.5642 4.56459 41.7065 4.333 41.8034 4.0781C41.9002 3.82321 41.9495 3.55005 41.9486 3.27438C41.9491 3.00035 41.8992 2.72896 41.8019 2.47608C41.7045 2.22321 41.5616 1.99393 41.3816 1.80167C41.2015 1.60941 40.9879 1.45803 40.7532 1.35638C40.5186 1.25474 40.2676 1.20487 40.0149 1.20969Z" fill="#F42C33"/>
<path fill-rule="evenodd" clip-rule="evenodd" d="M40.1079 3.16953H39.6914V2.52028H40.0632C40.3124 2.52028 40.4797 2.60093 40.4797 2.85095C40.4797 2.98403 40.4165 3.16953 40.1079 3.16953ZM40.7512 3.85103C40.7512 3.61714 40.7214 3.40342 40.476 3.31873C40.5733 3.29529 40.66 3.23571 40.7211 3.1503C40.7822 3.06488 40.8139 2.959 40.8107 2.85095C40.8103 2.76532 40.7931 2.68075 40.7603 2.60286C40.7275 2.52496 40.6798 2.45551 40.6204 2.39909C40.561 2.34267 40.4912 2.30057 40.4157 2.27558C40.3401 2.25059 40.2606 2.24328 40.1822 2.25413H39.3381V4.31478H39.6914V3.46794H39.9703C40.3682 3.46794 40.3979 3.66553 40.3979 3.8712C40.3979 4.22203 40.3979 4.27445 40.476 4.33494H40.8479C40.7698 4.25429 40.7995 4.18977 40.7698 3.8712L40.7512 3.85103Z" fill="#F42C33"/>
<mask id="mask1_13_709" style="mask-type:luminance" maskUnits="userSpaceOnUse" x="0" y="1" width="48" height="31">
<path d="M47.4074 1H0V31.7404H47.4074V1Z" fill="white"/>
</mask>
<g mask="url(#mask1_13_709)">
<path d="M3.75574 28.6675H3.21655V27.7844H4.66306V31.6315H3.75574V28.6675Z" fill="#F42C33"/>
<path d="M7.89814 31.4541C7.6179 31.6557 7.28595 31.756 6.94992 31.7404C6.46682 31.717 6.01065 31.4925 5.6764 31.1135C5.34216 30.7345 5.15561 30.2303 5.15561 29.7059C5.15561 29.1815 5.34216 28.6773 5.6764 28.2983C6.01065 27.9194 6.46682 27.6948 6.94992 27.6715C7.29241 27.6679 7.62798 27.776 7.91301 27.982V29.095C7.81275 28.9541 7.68443 28.8395 7.53762 28.7599C7.39081 28.6803 7.22931 28.6377 7.06519 28.6353C6.93771 28.6384 6.81221 28.6702 6.69662 28.7286C6.58104 28.787 6.47788 28.8708 6.39366 28.9746C6.30944 29.0784 6.246 29.2001 6.20734 29.3319C6.16867 29.4636 6.15563 29.6027 6.16903 29.7402C6.15917 29.8736 6.17512 30.0077 6.21587 30.1339C6.25661 30.2602 6.32125 30.3759 6.40564 30.4735C6.49002 30.571 6.59229 30.6484 6.70587 30.7006C6.81945 30.7528 6.94184 30.7787 7.06519 30.7766C7.22188 30.7734 7.37638 30.7361 7.51948 30.6668C7.66258 30.5975 7.79136 30.4977 7.89814 30.3733V31.4662V31.4541Z" fill="#F42C33"/>
</g>
<mask id="mask2_13_709" style="mask-type:luminance" maskUnits="userSpaceOnUse" x="0" y="1" width="48" height="31">
<path d="M47.4074 1H0V31.7404H47.4074V1Z" fill="white"/>
</mask>
<g mask="url(#mask2_13_709)">
<path d="M8.82413 30.6072C8.92667 30.6056 9.02732 30.6371 9.11329 30.6977C9.19926 30.7583 9.26667 30.8453 9.30693 30.9476C9.3472 31.0499 9.3585 31.1628 9.3394 31.2721C9.32031 31.3813 9.27168 31.482 9.19969 31.5612C9.12771 31.6404 9.03564 31.6945 8.93517 31.7168C8.83471 31.7391 8.73041 31.7285 8.63553 31.6863C8.54065 31.6442 8.45948 31.5723 8.40235 31.48C8.34522 31.3876 8.31471 31.2789 8.3147 31.1677C8.31468 31.0205 8.36812 30.8791 8.46345 30.7742C8.55878 30.6693 8.68834 30.6093 8.82413 30.6072ZM8.82413 28.8772C8.92667 28.8756 9.02732 28.9071 9.11329 28.9678C9.19926 29.0284 9.26667 29.1153 9.30693 29.2176C9.3472 29.3199 9.3585 29.4328 9.3394 29.5421C9.32031 29.6513 9.27168 29.752 9.19969 29.8312C9.12771 29.9104 9.03564 29.9646 8.93517 29.9869C8.83471 30.0091 8.73041 29.9985 8.63553 29.9563C8.54065 29.9142 8.45948 29.8423 8.40235 29.75C8.34522 29.6577 8.31471 29.549 8.3147 29.4378C8.31468 29.2905 8.36812 29.1491 8.46345 29.0442C8.55878 28.9393 8.68834 28.8794 8.82413 28.8772Z" fill="#F42C33"/>
<path d="M12.234 30.3209C12.3313 30.3285 12.4291 30.3144 12.5211 30.2792C12.6132 30.2441 12.6976 30.1887 12.7691 30.1167C12.8405 30.0446 12.8975 29.9573 12.9365 29.8603C12.9755 29.7632 12.9956 29.6585 12.9956 29.5527C12.9956 29.4468 12.9755 29.3421 12.9365 29.2451C12.8975 29.1481 12.8405 29.0608 12.7691 28.9887C12.6976 28.9166 12.6132 28.8613 12.5211 28.8261C12.4291 28.791 12.3313 28.7768 12.234 28.7845V30.3209ZM11.3936 28.7845C11.2963 28.7768 11.1985 28.791 11.1065 28.8261C11.0144 28.8613 10.93 28.9166 10.8585 28.9887C10.7871 29.0608 10.7301 29.1481 10.6911 29.2451C10.6521 29.3421 10.632 29.4468 10.632 29.5527C10.632 29.6585 10.6521 29.7632 10.6911 29.8603C10.7301 29.9573 10.7871 30.0446 10.8585 30.1167C10.93 30.1887 11.0144 30.2441 11.1065 30.2792C11.1985 30.3144 11.2963 30.3285 11.3936 30.3209V28.7845ZM11.323 31.0911C10.7206 31.0911 9.66821 30.9056 9.66821 29.5507C9.66821 28.1957 10.7206 27.9901 11.323 28.0143V27.611H12.3046V28.0143C12.907 27.9901 13.9594 28.2159 13.9594 29.5507C13.9594 30.8855 12.907 31.0951 12.3046 31.0911V31.6476H11.323V31.0911Z" fill="#F42C33"/>
<path d="M15.2717 29.5144H15.5506C15.9894 29.5144 16.034 29.2321 16.034 29.0668C16.034 28.9014 15.9745 28.6272 15.5506 28.6272H15.2717V29.5144ZM14.29 27.7844H15.7774C15.9391 27.7746 16.1008 27.8006 16.2528 27.861C16.4048 27.9213 16.5439 28.0146 16.6615 28.1352C16.7791 28.2558 16.8728 28.4011 16.9368 28.5624C17.0008 28.7236 17.0339 28.8973 17.0339 29.0728C17.0339 29.2483 17.0008 29.422 16.9368 29.5832C16.8728 29.7445 16.7791 29.8898 16.6615 30.0104C16.5439 30.131 16.4048 30.2243 16.2528 30.2847C16.1008 30.345 15.9391 30.371 15.7774 30.3612H15.2717V31.6476H14.29V27.7844Z" fill="#F42C33"/>
<path d="M18.1982 30.1193H19.0014L18.5923 28.6998L18.1907 30.1193H18.1982ZM18.0048 27.7844H19.1947L20.4516 31.6476H19.3918L19.1947 30.9822H18.0048L17.8077 31.6476H16.7554L18.0048 27.8005V27.7844Z" fill="#F42C33"/>
<path d="M20.7046 27.7844H21.6863V29.1676H22.8799V27.7844H23.8616V31.6315H22.8799V30.091H21.6863V31.6315H20.7046V27.7844Z" fill="#F42C33"/>
<path d="M26.1335 30.1314C25.916 30.17 25.6957 30.1875 25.4753 30.1838C24.2891 30.1838 24.2371 29.5345 24.2371 28.8974V27.7844H25.2225V28.7442C25.2225 29.0426 25.2225 29.3208 25.7617 29.3208C25.8435 29.3208 25.9439 29.3208 26.1335 29.2845V27.7844H27.1152V31.6476H26.1335V30.1314Z" fill="#F42C33"/>
<path d="M28.7961 30.1193H29.5955L29.1939 28.6998L28.7961 30.1193ZM28.599 27.7844H29.7926L31.042 31.6476H29.986L29.7926 30.9822H28.599L28.4056 31.6476H27.3533L28.599 27.8005V27.7844Z" fill="#F42C33"/>
<path d="M38.8847 27.7844V30.091L40.242 27.7844H41.2051V31.6315H40.2606V29.3208L38.8996 31.6315H37.9365V27.7844H38.8847Z" fill="#F42C33"/>
<path d="M41.6028 27.7844H42.5845V29.1676H43.7781V27.7844H44.7598V31.6315H43.7781V30.091H42.5845V31.6315H41.6028V27.7844Z" fill="#F42C33"/>
<path d="M45.2544 27.7844H47.3591V28.7079H46.2398V31.6315H45.2544V27.7844Z" fill="#F42C33"/>
<path d="M33.9389 26.9577C33.8247 27.1474 33.6686 27.3033 33.4849 27.4111C33.3012 27.519 33.0955 27.5755 32.8866 27.5755C32.6777 27.5755 32.472 27.519 32.2883 27.4111C32.1045 27.3033 31.9485 27.1474 31.8342 26.9577L32.3957 26.7279C32.4427 26.825 32.5132 26.9064 32.5997 26.9632C32.6862 27.02 32.7855 27.05 32.8866 27.05C32.9877 27.05 33.0869 27.02 33.1735 26.9632C33.26 26.9064 33.3305 26.825 33.3774 26.7279L33.9389 26.9577ZM32.1987 27.7642V30.0709L33.5559 27.7642H34.519V31.6476H33.5708V29.3208L32.2135 31.6476H31.2356V27.7844L32.1987 27.7642Z" fill="#F42C33"/>
<path d="M34.954 28.0183C35.3121 27.7877 35.72 27.6639 36.1365 27.6594C36.9248 27.6594 37.4863 28.107 37.4863 28.7482C37.489 28.9432 37.4342 29.1341 37.3298 29.2929C37.2255 29.4518 37.077 29.5704 36.9062 29.6313C37.0974 29.6807 37.2669 29.8006 37.3856 29.9706C37.5043 30.1405 37.5649 30.3499 37.557 30.5629C37.557 31.2928 36.9397 31.7404 36.1476 31.7404C35.6367 31.7507 35.1421 31.5454 34.7681 31.1677L35.1771 30.4379C35.4038 30.6895 35.7056 30.8453 36.0286 30.8774C36.4488 30.8774 36.5455 30.6153 36.5455 30.4741C36.5455 30.2483 36.3968 30.0709 35.9766 30.0709H35.4225V29.3007H35.9766C36.4228 29.3007 36.4972 29.0748 36.4972 28.8974C36.4972 28.6554 36.3001 28.4941 35.9989 28.4941C35.7432 28.4985 35.4955 28.5918 35.2924 28.7603L34.954 28.0183Z" fill="#F42C33"/>
</g>
<path d="M54.8808 30.0141C54.9043 30.451 54.6325 30.8759 54.124 31.1971C53.8716 31.3522 53.5655 31.4741 53.226 31.5549C52.8865 31.6357 52.5215 31.6734 52.1551 31.6657C51.7997 31.6728 51.446 31.6345 51.1186 31.5536C50.7912 31.4726 50.4981 31.351 50.2598 31.1971C49.7647 30.8722 49.5033 30.4485 49.5298 30.0141V29.323C49.5022 28.8896 49.7598 28.4664 50.2498 28.14C50.4872 27.9852 50.7799 27.8627 51.1074 27.7811C51.4349 27.6995 51.7891 27.6607 52.145 27.6676C52.512 27.6601 52.8775 27.6983 53.217 27.7798C53.5566 27.8613 53.8624 27.9841 54.1139 28.14C54.6222 28.4614 54.8939 28.8861 54.8707 29.323L54.8808 30.0141ZM53.9767 29.3172C53.9988 29.0006 53.824 28.69 53.4844 28.4426C53.3212 28.3295 53.1154 28.2399 52.8831 28.1806C52.6509 28.1214 52.3983 28.0941 52.145 28.101C51.9043 28.096 51.665 28.1244 51.4467 28.1837C51.2284 28.2431 51.0374 28.3318 50.8893 28.4426C50.5651 28.694 50.3995 29.0029 50.4205 29.3172V30.0141C50.3972 30.3304 50.5629 30.6416 50.8893 30.8945C51.0388 31.0058 51.2316 31.0946 51.4517 31.1537C51.6718 31.2128 51.913 31.2404 52.1551 31.2342C52.408 31.2412 52.6603 31.2141 52.8926 31.1552C53.1248 31.0964 53.3307 31.0072 53.4945 30.8945C53.8335 30.6441 54.007 30.3309 53.9834 30.0122L53.9767 29.3172Z" fill="#BBB8B4"/>
<path d="M56.2246 30.4674C56.1893 30.0675 56.3806 29.6714 56.7722 29.3333C56.9396 29.1953 57.169 29.0831 57.4383 29.0074C57.7077 28.9318 58.0079 28.8953 58.3104 28.9014C58.5784 28.8995 58.8447 28.9249 59.0958 28.9763C59.324 29.0247 59.5314 29.0986 59.7046 29.1933V27.6667H60.6773V29.2446C60.8537 29.1356 61.073 29.05 61.3185 28.9941C61.5863 28.9353 61.873 28.9064 62.1615 28.9093C62.4604 28.9014 62.7581 28.9353 63.0266 29.0078C63.295 29.0802 63.5254 29.1888 63.6961 29.3235C64.0924 29.6642 64.285 30.064 64.2473 30.4674V30.5246C64.2797 30.8883 64.0853 31.2472 63.6961 31.5424C63.5189 31.6705 63.2878 31.7732 63.0225 31.8419C62.7572 31.9105 62.4655 31.9431 62.1723 31.9369C61.882 31.9402 61.5933 31.9127 61.3221 31.856C61.0771 31.805 60.8566 31.724 60.6773 31.6193V33H59.7046V31.639C59.5305 31.7346 59.3219 31.8092 59.0922 31.858C58.8391 31.9074 58.5719 31.9314 58.3032 31.929C58.0094 31.9354 57.7171 31.9029 57.4512 31.8342C57.1853 31.7655 56.9536 31.6627 56.7758 31.5345C56.3866 31.2393 56.1922 30.8804 56.2246 30.5168V30.4674ZM57.1937 30.5246C57.1728 30.776 57.2881 31.0251 57.5251 31.2406C57.6369 31.3313 57.7902 31.4044 57.9697 31.4525C58.1493 31.5006 58.3487 31.5221 58.5482 31.5148C58.7874 31.5191 59.0238 31.4856 59.2291 31.4181C59.4254 31.3498 59.5885 31.2564 59.7046 31.1459V29.6726C59.5854 29.5672 59.4224 29.4787 59.2291 29.4142C59.0264 29.3488 58.7942 29.316 58.559 29.3195C58.3493 29.3143 58.1412 29.3417 57.9588 29.3986C57.7764 29.4555 57.6273 29.5396 57.5287 29.641C57.2883 29.896 57.1729 30.1807 57.1937 30.4674V30.5246ZM63.2746 30.4674C63.2935 30.1804 63.1689 29.8961 62.9144 29.645C62.8105 29.5438 62.6577 29.4602 62.4728 29.4035C62.2878 29.3468 62.0779 29.3191 61.8661 29.3235C61.6119 29.3187 61.3609 29.3558 61.1456 29.43C60.9484 29.5033 60.7875 29.6022 60.6773 29.7179V31.1341C60.7894 31.2487 60.9531 31.3458 61.1528 31.4162C61.371 31.4859 61.6207 31.5208 61.8733 31.5168C62.0759 31.5229 62.2779 31.5007 62.4607 31.4524C62.6434 31.4041 62.8007 31.3313 62.918 31.2406C63.1727 31.0294 63.2988 30.7795 63.2782 30.5266L63.2746 30.4674Z" fill="#BBB8B4"/>
<path d="M68.7013 29H69.6063V31.6667H68.7013V29.7748H68.6745L66.4889 31.6667H65.5906V29H66.4889V30.8919H66.5157L68.7013 29Z" fill="#BBB8B4"/>
<path d="M70.9526 29H71.9963V31.578H74.5609V29H75.6046V31.578H76.2992V33H75.2516V32.0066H70.9448L70.9526 29Z" fill="#BBB8B4"/>
<path d="M80.7525 29H81.6534V31.6613H80.7525V29.7732H80.7257L78.5353 31.6667H77.6377V29H78.5353V30.8881H78.5621L80.7525 29Z" fill="#BBB8B4"/>
<path d="M87.1379 31.6106C87.0991 31.5331 87.0689 31.4659 87.0473 31.4074C87.0265 31.3503 87.0135 31.2928 87.0085 31.2351C86.7788 31.3612 86.4846 31.4662 86.1454 31.5434C85.8052 31.6247 85.4155 31.667 85.019 31.6657C84.7455 31.6709 84.4722 31.6546 84.2145 31.6177C83.9568 31.5808 83.7199 31.5239 83.5172 31.4504C83.3377 31.3763 83.1986 31.2882 83.1087 31.1915C83.0188 31.0949 82.9801 30.9918 82.9951 30.8889C82.9878 30.7773 83.0522 30.6668 83.1821 30.5679C83.312 30.469 83.5031 30.3851 83.7373 30.324C84.3374 30.1747 85.0379 30.1026 85.744 30.1173H87.0085V29.8659C87.0161 29.8005 86.9898 29.7353 86.9311 29.6742C86.8724 29.6131 86.7827 29.5576 86.6675 29.511C86.4 29.4179 86.0509 29.3708 85.6966 29.3801C85.3677 29.3741 85.0439 29.4144 84.7817 29.4938C84.6762 29.5254 84.5903 29.5662 84.5304 29.613C84.4706 29.6599 84.4384 29.7116 84.4364 29.7642H83.3317V29.7487C83.325 29.6478 83.381 29.5478 83.4947 29.4577C83.6084 29.3675 83.7763 29.29 83.9833 29.232C84.4922 29.0723 85.1274 28.9905 85.7742 29.0012C86.4041 28.9891 87.0241 29.0673 87.522 29.2217C87.7461 29.3002 87.9222 29.3981 88.0366 29.508C88.1511 29.6179 88.2009 29.7368 88.1823 29.8555V31.1059C88.1825 31.194 88.1941 31.2819 88.2168 31.3695C88.2429 31.454 88.2862 31.5375 88.3463 31.6192L87.1379 31.6106ZM85.2089 31.2661C85.612 31.2679 86.0077 31.2231 86.3482 31.1369C86.6443 31.0693 86.8763 30.9645 87.0085 30.839V30.4256H85.7138C85.308 30.417 84.9081 30.4672 84.5875 30.5668C84.4568 30.6055 84.35 30.6555 84.2752 30.7131C84.2004 30.7707 84.1596 30.8344 84.1559 30.8993C84.1497 30.9488 84.1704 30.9983 84.2166 31.0444C84.2628 31.0905 84.3333 31.132 84.4235 31.1662C84.6384 31.2432 84.9204 31.2834 85.2089 31.2782V31.2661Z" fill="#BBB8B4"/>
<path d="M93.7008 29V31.6633H92.6433V29.3851H90.6777V30.1373C90.6777 30.6628 90.5283 31.0479 90.2216 31.2944C90.0635 31.4181 89.8315 31.5185 89.5529 31.5839C89.2744 31.6492 88.9608 31.6768 88.6491 31.6633H88.3464L88.37 31.2494H88.5902C88.7636 31.2531 88.9348 31.2303 89.077 31.1848C89.2192 31.1392 89.3245 31.0733 89.3764 30.9975C89.5586 30.7194 89.6344 30.429 89.6005 30.1391V29H93.7008Z" fill="#BBB8B4"/>
<path d="M95.9462 30.0176H97.1868C97.6805 29.999 98.1699 30.078 98.5622 30.2395C98.722 30.3113 98.8494 30.4015 98.9346 30.5033C99.0199 30.6052 99.0608 30.7161 99.0544 30.8277C99.0601 30.9413 99.0186 31.0541 98.9329 31.158C98.8472 31.2619 98.7194 31.3543 98.5588 31.4285C98.1723 31.5959 97.6831 31.6802 97.1868 31.6649H95.0393V29H95.9462V30.0176ZM95.9462 30.3965V31.2896H97.1868C97.3164 31.2955 97.447 31.2875 97.5709 31.2662C97.6947 31.2448 97.8094 31.2104 97.9082 31.1651C97.9844 31.1239 98.0443 31.0748 98.0843 31.0208C98.1243 30.9669 98.1435 30.9092 98.1408 30.8512C98.1424 30.7925 98.1224 30.7343 98.082 30.6798C98.0415 30.6253 97.9813 30.5756 97.9048 30.5336C97.8104 30.4846 97.6974 30.4471 97.5736 30.4234C97.4497 30.3997 97.3178 30.3906 97.1868 30.3965H95.9462Z" fill="#BBB8B4"/>
<path d="M105.748 31.6667H104.541V30.5333H101.596V31.6667H100.394V29H101.596V30.1532H104.541V29H105.748V31.6667Z" fill="#BBB8B4"/>
<path d="M108.136 30.0162H109.563C110.133 29.9985 110.698 30.0773 111.152 30.2378C111.336 30.3096 111.482 30.3997 111.58 30.5015C111.677 30.6032 111.724 30.7139 111.716 30.8252C111.722 30.9386 111.674 31.0513 111.576 31.155C111.477 31.2588 111.33 31.3511 111.144 31.4252C110.699 31.5927 110.135 31.6769 109.563 31.6613H107.087V29H108.136V30.0162ZM108.136 30.3946V31.2865H109.563C109.712 31.2924 109.863 31.2844 110.005 31.2631C110.148 31.2417 110.28 31.2074 110.394 31.1622C110.482 31.121 110.551 31.072 110.597 31.0181C110.643 30.9642 110.666 30.9066 110.662 30.8486C110.666 30.7307 110.57 30.6169 110.394 30.5315C110.284 30.4828 110.153 30.4453 110.01 30.4217C109.867 30.3981 109.714 30.3889 109.563 30.3946H108.136ZM113.78 31.6667H112.73V29H113.78V31.6667Z" fill="#BBB8B4"/>
<path d="M118.233 28.8297H119.134V31.6609H118.233V29.6523H118.206L116.016 31.6667H115.118V28.8297H116.016V30.8383H116.042L118.233 28.8297ZM118.471 27.6667V27.682C118.481 27.7745 118.455 27.8673 118.393 27.9531C118.332 28.039 118.237 28.1157 118.115 28.1774C117.826 28.3016 117.473 28.3687 117.111 28.3687C116.748 28.3687 116.396 28.3016 116.106 28.1774C115.987 28.1152 115.895 28.0381 115.837 27.9521C115.779 27.8662 115.756 27.7737 115.771 27.682V27.6667H116.488C116.48 27.7675 116.536 27.8666 116.645 27.9459C116.707 27.9842 116.784 28.0137 116.869 28.0323C116.955 28.0508 117.047 28.058 117.138 28.0531C117.228 28.0575 117.32 28.0502 117.405 28.0317C117.49 28.0131 117.567 27.9838 117.63 27.9459C117.738 27.8663 117.794 27.7674 117.787 27.6667H118.471Z" fill="#BBB8B4"/>
<path d="M128.5 31.6667H127.299V29.3856H124.354V31.6667H123.15V29H128.504L128.5 31.6667Z" fill="#BBB8B4"/>
<path d="M134.002 31.6106C133.963 31.5331 133.933 31.4659 133.911 31.4073C133.89 31.3502 133.877 31.2927 133.872 31.2351C133.642 31.3611 133.347 31.4662 133.006 31.5434C132.665 31.6247 132.274 31.667 131.876 31.6657C131.602 31.671 131.327 31.6546 131.069 31.6177C130.81 31.5807 130.573 31.5239 130.369 31.4504C130.19 31.376 130.051 31.2878 129.961 31.1912C129.871 31.0946 129.832 30.9917 129.846 30.8888C129.836 30.7763 129.899 30.6648 130.03 30.5649C130.16 30.465 130.353 30.3802 130.59 30.3187C131.192 30.1694 131.895 30.0972 132.604 30.112H133.872V29.8656C133.88 29.8003 133.853 29.735 133.795 29.674C133.736 29.6129 133.646 29.5573 133.53 29.5108C133.262 29.4176 132.911 29.3705 132.556 29.3799C132.226 29.3739 131.901 29.4141 131.638 29.4935C131.532 29.5251 131.446 29.5659 131.386 29.6128C131.326 29.6597 131.294 29.7114 131.292 29.764H130.183V29.7485C130.177 29.6476 130.233 29.5476 130.347 29.4574C130.461 29.3672 130.629 29.2897 130.837 29.2317C131.348 29.0723 131.985 28.9904 132.634 29.0009C133.258 28.9908 133.872 29.0689 134.366 29.2214C134.591 29.2999 134.767 29.3978 134.882 29.5077C134.997 29.6176 135.047 29.7365 135.028 29.8553V31.1059C135.029 31.1939 135.04 31.2819 135.063 31.3694C135.088 31.4541 135.133 31.5377 135.197 31.6192L134.002 31.6106ZM132.067 31.2661C132.471 31.2679 132.868 31.223 133.21 31.1369C133.507 31.0692 133.74 30.9645 133.872 30.8389V30.4255H132.573C132.166 30.4169 131.765 30.467 131.443 30.5667C131.312 30.6052 131.204 30.6552 131.129 30.7129C131.054 30.7705 131.014 30.8343 131.01 30.8992C131.003 30.9486 131.024 30.998 131.069 31.0441C131.115 31.0902 131.185 31.1318 131.274 31.1662C131.491 31.2436 131.776 31.2838 132.067 31.2781V31.2661Z" fill="#BBB8B4"/>
<path d="M140.548 30.5832C140.576 30.9377 140.405 31.2875 140.061 31.5753C139.904 31.7001 139.7 31.8003 139.466 31.8672C139.232 31.9342 138.974 31.9659 138.715 31.9598C138.453 31.9629 138.193 31.9335 137.951 31.8733C137.733 31.8138 137.541 31.7227 137.394 31.608V33H136.535V29.0528H137.194L137.328 29.4219C137.474 29.2904 137.672 29.1827 137.904 29.1085C138.152 29.0343 138.426 28.9973 138.702 29.0008C138.968 28.9941 139.232 29.0283 139.47 29.1003C139.707 29.1723 139.911 29.2796 140.061 29.4123C140.408 29.7423 140.578 30.1291 140.548 30.5198V30.5832ZM139.689 30.5274C139.706 30.2501 139.596 29.9752 139.37 29.7334C139.278 29.635 139.142 29.5538 138.978 29.4989C138.814 29.444 138.629 29.4173 138.441 29.4219C138.217 29.4167 137.995 29.4522 137.805 29.5238C137.633 29.5928 137.492 29.6866 137.394 29.7968V31.1715C137.494 31.2833 137.638 31.3779 137.814 31.4465C138.007 31.5145 138.228 31.5485 138.451 31.5445C138.63 31.5505 138.808 31.5289 138.97 31.4818C139.131 31.4348 139.27 31.3637 139.374 31.2754C139.597 31.0691 139.709 30.8257 139.692 30.5794L139.689 30.5274Z" fill="#BBB8B4"/>
<path d="M145.905 29.3784H144.324V31.6667H143.452V29.3784H141.89V29H145.905V29.3784Z" fill="#BBB8B4"/>
<path d="M152.598 31.6667H151.395V30.5333H148.447V31.6667H147.244V29H148.447V30.1532H151.395V29H152.598V31.6667Z" fill="#BBB8B4"/>
<path d="M156.892 31.6643C156.488 31.675 156.083 31.6492 155.707 31.589C155.33 31.5288 154.993 31.4356 154.718 31.3164C154.179 31.0549 153.901 30.7225 153.94 30.3838V30.2794C153.916 29.945 154.206 29.6191 154.753 29.366C154.991 29.2512 155.289 29.159 155.627 29.0961C155.964 29.0332 156.333 29.0012 156.705 29.0024C157.068 28.992 157.432 29.0157 157.767 29.0716C158.103 29.1275 158.402 29.214 158.639 29.3242C159.096 29.5703 159.325 29.8723 159.287 30.1785V30.4099H155.175L155.153 30.4221C155.129 30.6446 155.281 30.8644 155.588 31.0502C155.736 31.1313 155.934 31.1961 156.162 31.2384C156.39 31.2806 156.641 31.2991 156.892 31.292C157.247 31.2947 157.6 31.2717 157.935 31.2241C158.218 31.1817 158.479 31.1186 158.704 31.038L159.161 31.3425C158.896 31.4396 158.588 31.5158 158.252 31.5669C157.819 31.6339 157.357 31.6669 156.892 31.6643ZM156.705 29.366C156.511 29.3646 156.319 29.3809 156.144 29.4138C155.968 29.4467 155.814 29.4952 155.692 29.5556C155.413 29.694 155.242 29.8623 155.201 30.0393V30.0515H158.1V30.0097C158.117 29.844 157.996 29.6806 157.757 29.5452C157.63 29.4839 157.468 29.4357 157.285 29.4045C157.102 29.3734 156.903 29.3602 156.705 29.366Z" fill="#BBB8B4"/>
<path d="M164.642 30.5832C164.671 30.9377 164.499 31.2875 164.155 31.5753C163.999 31.7 163.795 31.8 163.561 31.867C163.327 31.9339 163.07 31.9658 162.811 31.9598C162.549 31.9629 162.289 31.9335 162.047 31.8733C161.827 31.8138 161.635 31.7227 161.487 31.608V33H160.63V29.0527H161.286L161.423 29.4219C161.568 29.2901 161.765 29.1824 161.996 29.1085C162.245 29.0342 162.521 28.9973 162.799 29.0008C163.064 28.9942 163.329 29.0285 163.566 29.1005C163.804 29.1724 164.008 29.2797 164.158 29.4123C164.505 29.7425 164.674 30.1293 164.642 30.5197V30.5832ZM163.786 30.5274C163.803 30.2501 163.693 29.9752 163.467 29.7333C163.374 29.6351 163.238 29.5541 163.074 29.4991C162.91 29.4442 162.725 29.4175 162.537 29.4219C162.313 29.4164 162.091 29.4519 161.901 29.5238C161.727 29.5926 161.585 29.6865 161.487 29.7968V31.1715C161.587 31.2834 161.733 31.378 161.91 31.4465C162.103 31.515 162.324 31.549 162.547 31.5445C162.726 31.5503 162.905 31.5286 163.066 31.4816C163.227 31.4345 163.366 31.3636 163.47 31.2753C163.693 31.0687 163.804 30.8256 163.789 30.5793L163.786 30.5274Z" fill="#BBB8B4"/>
<path d="M151.127 18.2601V16.9779H170V18.2601H162.965V24.3334H158.163V18.2601H151.127Z" fill="#A52DC2"/>
<path d="M131.266 24.3334V16.9779H140.332C142.068 16.9779 143.549 17.0773 144.776 17.276C146.01 17.4724 146.949 17.7513 147.592 18.1128C148.243 18.472 148.568 18.8946 148.568 19.3807C148.568 19.8691 148.239 20.2893 147.581 20.6413C146.923 20.9909 145.969 21.259 144.72 21.4458C143.478 21.6326 141.974 21.7259 140.209 21.7259H134.139V20.4761H139.424C140.351 20.4761 141.122 20.4354 141.735 20.354C142.348 20.2726 142.805 20.1504 143.104 19.9876C143.411 19.8248 143.564 19.6225 143.564 19.3807C143.564 19.1364 143.411 18.9305 143.104 18.7629C142.805 18.5953 142.345 18.4684 141.724 18.3822C141.11 18.2936 140.336 18.2493 139.401 18.2493H136.125V24.3334H131.266ZM143.676 20.9861L149.387 24.3334H144.024L138.436 20.9861H143.676Z" fill="#A52DC2"/>
<path d="M111.919 24.3334V16.9779H127.403V18.2601H116.778V20.0128H126.607V21.2949H116.778V23.0512H127.448V24.3334H111.919Z" fill="#A52DC2"/>
<path d="M91.4618 24.3334V16.9779H100.528C102.271 16.9779 103.756 17.0845 104.983 17.2976C106.209 17.5083 107.144 17.8016 107.788 18.1775C108.438 18.551 108.764 18.982 108.764 19.4704C108.764 19.9589 108.435 20.3899 107.776 20.7634C107.118 21.1369 106.164 21.4278 104.915 21.6361C103.673 21.8445 102.17 21.9486 100.405 21.9486H94.626V20.7023H99.6191C100.554 20.7023 101.325 20.6509 101.931 20.5479C102.544 20.4426 103 20.2977 103.299 20.1133C103.606 19.9266 103.76 19.7123 103.76 19.4704C103.76 19.2262 103.606 19.0131 103.299 18.8312C103 18.6468 102.544 18.5043 101.931 18.4038C101.317 18.3008 100.539 18.2493 99.5967 18.2493H96.3203V24.3334H91.4618Z" fill="#A52DC2"/>
<path d="M73.4299 16.9779L78.064 19.4848H78.2436L82.9001 16.9779H88.3869L81.3741 20.6557L88.544 24.3334H82.9562L78.2436 21.8229H78.064L73.3514 24.3334H67.786L74.9784 20.6557L67.9206 16.9779H73.4299Z" fill="#A52DC2"/>
<path d="M49.5277 24.3333V16.9779H65.0121V18.2601H54.3862V20.0127H64.2154V21.2949H54.3862V23.0512H65.057V24.3333H49.5277Z" fill="#A52DC2"/>
<path d="M144.804 0.213636C146.58 0.317217 148.117 0.394903 149.416 0.446693C150.715 0.485536 151.788 0.517905 152.636 0.5438C153.617 0.569695 154.438 0.576169 155.101 0.563222C155.79 0.550274 156.731 0.517905 157.924 0.466114C158.931 0.427272 160.256 0.375481 161.899 0.310743C163.542 0.233057 165.596 0.129476 168.061 0C168.088 0.297795 168.101 0.589117 168.101 0.873965C168.127 1.14586 168.154 1.3854 168.18 1.59256C168.207 1.83856 168.22 2.06515 168.22 2.27231C168.22 2.49242 168.194 2.77079 168.141 3.10743C168.088 3.39228 167.995 3.75481 167.862 4.19503C167.756 4.6223 167.584 5.13373 167.346 5.72932C166.975 5.03015 166.617 4.46693 166.272 4.03966C165.928 3.59944 165.61 3.24985 165.318 2.9909C165 2.69311 164.682 2.46652 164.364 2.31115C164.019 2.19462 163.609 2.09752 163.131 2.01983C162.707 1.95509 162.164 1.9033 161.502 1.86446C160.865 1.82561 160.11 1.83209 159.235 1.88388C159.103 3.59297 159.01 4.97836 158.957 6.04007C158.904 7.10177 158.864 7.93042 158.838 8.52601C158.811 9.23813 158.798 9.74956 158.798 10.0603C158.825 10.5005 158.97 10.9343 159.235 11.3615C159.447 11.7241 159.792 12.0996 160.269 12.488C160.746 12.8764 161.435 13.2195 162.336 13.5173H157.486C157.036 13.5173 156.479 13.5303 155.816 13.5562C155.26 13.5821 154.544 13.608 153.67 13.6338C152.822 13.6597 151.828 13.7051 150.688 13.7698C151.086 13.4332 151.404 13.1289 151.642 12.857C151.881 12.5851 152.066 12.352 152.199 12.1578C152.358 11.9248 152.477 11.7176 152.557 11.5363C152.583 11.2774 152.649 10.753 152.755 9.9632C152.782 9.63951 152.808 9.23813 152.835 8.75907C152.888 8.28001 152.941 7.71031 152.994 7.04998C153.073 6.38965 153.14 5.63222 153.193 4.77767C153.272 3.91018 153.352 2.93264 153.431 1.84504C152.954 1.7803 152.504 1.78677 152.079 1.86446C151.655 1.9292 151.284 2.01336 150.966 2.11694C150.595 2.24641 150.237 2.40178 149.893 2.58305C149.548 2.80316 149.164 3.08801 148.74 3.43759C148.369 3.73539 147.945 4.13029 147.468 4.6223C146.991 5.10136 146.447 5.69695 145.838 6.40907C145.705 5.65811 145.613 5.0431 145.56 4.56404C145.507 4.07203 145.467 3.69007 145.44 3.41817C145.414 3.09448 145.401 2.85495 145.401 2.69958C145.401 2.55716 145.374 2.36942 145.321 2.13636C145.268 1.94214 145.202 1.68966 145.122 1.37892C145.043 1.05523 144.937 0.666803 144.804 0.213636Z" fill="#BDAFE5"/>
<path d="M119.202 0.621487C120.395 0.725068 121.375 0.79628 122.144 0.835122C122.912 0.873965 123.535 0.906334 124.012 0.93223C124.569 0.958125 125.006 0.964599 125.324 0.951651H126.517C126.941 0.951651 127.471 0.951651 128.107 0.951651C128.77 0.938703 129.591 0.93223 130.572 0.93223C131.128 1.56666 131.632 2.14931 132.083 2.68016C132.56 3.21101 132.957 3.66418 133.275 4.03966C133.646 4.49283 133.991 4.90068 134.309 5.26321C134.68 5.71638 135.077 6.21486 135.502 6.75866C135.926 7.30246 136.31 7.81389 136.654 8.29295C137.025 8.77202 137.33 9.16692 137.569 9.47766C137.807 9.7884 137.927 9.93083 137.927 9.90493C137.927 9.89199 137.94 9.76251 137.966 9.5165C137.993 9.25755 138.019 8.94034 138.046 8.56485C138.072 8.17643 138.099 7.75563 138.125 7.30246C138.178 6.83635 138.205 6.38965 138.205 5.96238C138.231 5.52216 138.245 5.12079 138.245 4.75825C138.245 4.39572 138.218 4.12382 138.165 3.94255C138.086 3.72244 137.927 3.46996 137.688 3.18512C137.476 2.93911 137.185 2.64779 136.813 2.31115C136.442 1.96157 135.926 1.56666 135.263 1.12644C136.35 1.13939 137.238 1.14587 137.927 1.14587C138.616 1.14587 139.172 1.14587 139.596 1.14587C140.073 1.14587 140.444 1.13939 140.709 1.12644C141.054 1.12644 141.478 1.1135 141.982 1.0876C142.432 1.06171 142.989 1.04228 143.651 1.02934C144.34 1.00344 145.189 0.971073 146.196 0.93223C145.613 1.19118 145.149 1.43719 144.804 1.67024C144.46 1.9033 144.181 2.11046 143.969 2.29173C143.731 2.49889 143.572 2.69311 143.492 2.87437C143.386 3.10743 143.294 3.48939 143.214 4.02024C143.161 4.53814 143.095 5.12079 143.015 5.76817C142.962 6.41555 142.909 7.08883 142.856 7.788C142.803 8.48717 142.75 9.12808 142.697 9.71072C142.697 10.1509 142.671 10.6235 142.618 11.1285C142.565 11.5558 142.512 12.0413 142.459 12.5851C142.406 13.1159 142.339 13.6533 142.26 14.1971L138.722 14.2359C137.688 13.3425 136.813 12.5786 136.098 11.9442C135.409 11.2968 134.839 10.766 134.388 10.3516C133.885 9.87256 133.461 9.47119 133.116 9.1475C132.825 8.83675 132.44 8.48069 131.963 8.07932C131.566 7.74268 131.062 7.32836 130.453 6.83635C129.87 6.34434 129.167 5.78112 128.346 5.14668C128.266 6.04007 128.226 6.80398 128.226 7.43841C128.253 8.0599 128.293 8.5778 128.346 8.99213C128.425 9.47119 128.518 9.87256 128.624 10.1963C128.756 10.507 128.942 10.8566 129.18 11.245C129.392 11.5817 129.644 11.9766 129.936 12.4297C130.254 12.8829 130.638 13.3943 131.089 13.964C129.525 13.9252 128.359 13.9057 127.59 13.9057H126.398C126.027 13.9057 125.523 13.9252 124.887 13.964C124.357 13.9899 123.628 14.0288 122.7 14.0805C121.799 14.1323 120.673 14.2035 119.321 14.2942C119.957 13.9187 120.461 13.5756 120.832 13.2648C121.229 12.9412 121.534 12.6693 121.746 12.4491C122.011 12.1902 122.197 11.9636 122.303 11.7694C122.382 11.5622 122.435 11.2062 122.462 10.7012C122.488 10.1833 122.488 9.60066 122.462 8.95328C122.462 8.29295 122.435 7.60026 122.382 6.87519C122.356 6.15012 122.316 5.47685 122.263 4.85536C122.21 4.23387 122.144 3.70302 122.064 3.2628C122.011 2.82258 121.971 2.55068 121.945 2.4471C121.865 2.27878 121.706 2.09752 121.468 1.9033C121.256 1.73498 120.978 1.54724 120.633 1.34008C120.288 1.11997 119.811 0.880439 119.202 0.621487Z" fill="#BDAFE5"/>
<path d="M99.2447 1.24297C100.57 1.28181 101.683 1.31418 102.584 1.34008C103.512 1.35303 104.28 1.36597 104.89 1.37892C105.579 1.39187 106.162 1.39187 106.639 1.37892C107.116 1.36597 107.766 1.3336 108.587 1.28181C109.276 1.24297 110.191 1.18471 111.33 1.10702C112.496 1.01639 113.941 0.899859 115.664 0.757435C115.054 1.05523 114.577 1.32713 114.232 1.57314C113.914 1.80619 113.663 2.00688 113.477 2.1752C113.265 2.38236 113.119 2.55715 113.04 2.69958C112.987 2.82905 113.04 3.15275 113.199 3.67065C113.358 4.18856 113.583 4.80357 113.875 5.51569C114.166 6.21486 114.484 6.96582 114.829 7.76857C115.173 8.55838 115.518 9.30287 115.862 10.002C116.207 10.6883 116.512 11.2774 116.777 11.7694C117.068 12.2485 117.28 12.5333 117.413 12.6239C117.81 12.8958 118.062 13.0771 118.168 13.1677C118.274 13.2454 118.46 13.3166 118.725 13.3814C118.831 13.4073 119.003 13.4461 119.242 13.4979C119.454 13.5497 119.732 13.6144 120.076 13.6921C120.448 13.7698 120.911 13.8604 121.468 13.964C120.434 13.9899 119.546 14.0093 118.804 14.0223C118.062 14.0223 117.453 14.0288 116.976 14.0417C116.419 14.0546 115.942 14.0676 115.544 14.0805C115.147 14.0805 114.67 14.0935 114.113 14.1194C113.636 14.1453 113.013 14.1712 112.245 14.1971C111.503 14.223 110.628 14.2489 109.621 14.2748C110.151 14.0935 110.575 13.9316 110.893 13.7892C111.238 13.6338 111.503 13.5044 111.688 13.4008C111.9 13.2713 112.046 13.1548 112.125 13.0512C112.178 12.9347 112.218 12.7599 112.245 12.5268C112.271 12.3197 112.271 12.0478 112.245 11.7111C112.218 11.3615 112.152 10.9084 112.046 10.3516L101.59 10.876C101.325 11.0961 101.126 11.2903 100.994 11.4586C100.861 11.614 100.769 11.75 100.716 11.8665C100.636 12.0089 100.61 12.1254 100.636 12.2161C100.689 12.3197 100.782 12.4427 100.914 12.5851C101.047 12.7146 101.232 12.8699 101.471 13.0512C101.736 13.2195 102.12 13.4202 102.624 13.6533C101.961 13.6403 101.285 13.6338 100.596 13.6338C99.9072 13.6338 99.2712 13.6403 98.6881 13.6533C97.999 13.6662 97.3231 13.6792 96.6606 13.6921C95.998 13.7051 95.2426 13.7245 94.3945 13.7504C93.6789 13.7763 92.844 13.8086 91.8899 13.8475C90.9093 13.8734 89.8624 13.9122 88.7492 13.964C89.4383 13.8086 90.0214 13.6533 90.4985 13.4979C90.9755 13.3296 91.3731 13.1742 91.6911 13.0318C92.0622 12.8764 92.3802 12.7275 92.6453 12.5851C92.8308 12.4556 93.2018 12.1578 93.7584 11.6917C94.315 11.2126 94.9378 10.6494 95.6269 10.002C96.3425 9.35466 97.0846 8.66196 97.8532 7.92395C98.6483 7.18593 99.3639 6.49323 100 5.84585C100.636 5.18552 101.153 4.61583 101.55 4.13676C101.948 3.6577 102.147 3.34696 102.147 3.20454C102.094 3.03622 101.961 2.84848 101.749 2.64131C101.564 2.46005 101.272 2.25289 100.875 2.01983C100.504 1.78677 99.9602 1.52782 99.2447 1.24297ZM111.569 8.91444C111.41 8.46127 111.264 8.07284 111.132 7.74915C110.999 7.41251 110.893 7.13414 110.813 6.91403C110.707 6.65508 110.628 6.42849 110.575 6.23428C110.495 6.05301 110.403 5.81996 110.297 5.53511C110.191 5.2891 110.058 4.98483 109.899 4.6223C109.767 4.24682 109.594 3.80013 109.382 3.28222C107.872 4.75825 106.692 5.90412 105.844 6.71982C105.022 7.52257 104.426 8.11169 104.055 8.48717C103.604 8.92739 103.353 9.18634 103.3 9.26402L111.569 8.91444Z" fill="#BDAFE5"/>
<path d="M70.263 0.446695C72.0387 0.485538 73.4169 0.504959 74.3975 0.504959H75.8685C76.2925 0.504959 76.8226 0.498486 77.4587 0.485538C77.9888 0.47259 78.6646 0.466116 79.4862 0.466116C80.3078 0.453169 81.2885 0.433747 82.4281 0.407852C81.898 0.589119 81.474 0.763912 81.1559 0.932231C80.8379 1.10055 80.5861 1.24945 80.4006 1.37892C80.1886 1.5343 80.0428 1.67672 79.9633 1.8062C79.7778 2.14283 79.6982 2.60247 79.7247 3.18512C79.7778 3.75481 79.897 4.3763 80.0825 5.04958C80.2681 5.7099 80.4933 6.38318 80.7584 7.0694C81.0234 7.75563 81.2885 8.37711 81.5535 8.93386C81.845 9.49061 82.0968 9.95025 82.3088 10.3128C82.5474 10.6624 82.7196 10.8372 82.8257 10.8372C82.9317 10.8372 83.1305 10.6494 83.422 10.2739C83.74 9.89846 84.0978 9.42587 84.4954 8.85618C84.8929 8.27353 85.3037 7.64557 85.7278 6.9723C86.1519 6.28607 86.5362 5.63869 86.8807 5.03015C87.2518 4.40867 87.5566 3.87782 87.7951 3.4376C88.0336 2.98443 88.1529 2.70606 88.1529 2.60247C88.1264 2.46005 88.0336 2.31115 87.8746 2.15578C87.7421 2.01336 87.5035 1.85151 87.159 1.67025C86.841 1.47603 86.3904 1.25592 85.8073 1.00992C86.6289 0.996969 87.3313 0.984021 87.9144 0.971074C88.5239 0.958126 89.0408 0.951652 89.4648 0.951652H90.6972H97.0581C96.3955 1.17176 95.8257 1.3854 95.3486 1.59256C94.898 1.79972 94.527 1.99394 94.2355 2.1752C93.8909 2.38236 93.5994 2.57658 93.3608 2.75785C93.0958 3.02975 92.6585 3.61886 92.0489 4.5252C91.7839 4.91363 91.4791 5.38621 91.1345 5.94296C90.79 6.49971 90.3792 7.16651 89.9021 7.94337C89.4251 8.72023 88.895 9.62009 88.3119 10.6429C87.7288 11.6529 87.0662 12.8052 86.3241 14.1L80.7981 14.4495C80.1356 13.4396 79.5525 12.5204 79.0489 11.6917C78.5718 10.8501 78.1478 10.1315 77.7767 9.53593C77.3527 8.83676 76.9949 8.2088 76.7033 7.65205C76.3058 6.97877 75.9612 6.29902 75.6697 5.6128C75.4047 4.91363 75.1661 4.28567 74.9541 3.72892C74.7686 3.15922 74.5963 2.68663 74.4373 2.31115C74.2783 1.93567 74.106 1.71556 73.9205 1.65082C73.7614 1.58609 73.5229 1.50193 73.2049 1.39835C72.9133 1.30771 72.5423 1.19118 72.0917 1.04876C71.6147 0.893388 71.0051 0.6927 70.263 0.446695Z" fill="#BDAFE5"/>
<path d="M48.9144 0.52438C49.8155 0.589118 50.6106 0.634435 51.2997 0.66033C52.0153 0.686225 52.6116 0.71212 53.0887 0.738016C53.6453 0.763911 54.1223 0.776858 54.5199 0.776858H56.0703C57.104 0.776858 58.8135 0.757437 61.1988 0.718594C60.6157 0.809227 60.1254 0.938704 59.7278 1.10702C59.3568 1.27534 59.052 1.45013 58.8135 1.6314C58.5219 1.83856 58.3099 2.0522 58.1774 2.27231C58.0184 2.54421 57.8726 2.90674 57.7401 3.35991C57.6075 3.76129 57.475 4.28566 57.3425 4.93305C57.2365 5.58043 57.1305 6.38965 57.0245 7.36072C58.1641 6.72629 59.158 6.16307 60.0061 5.67106C60.8807 5.17905 61.6361 4.7453 62.2722 4.36982C62.9083 3.99434 63.4383 3.67065 63.8624 3.39875C64.3129 3.12685 64.684 2.89379 64.9755 2.69958C65.6646 2.25936 66.0622 1.96157 66.1682 1.80619C66.1947 1.71556 66.1815 1.60551 66.1284 1.47603C66.0754 1.37245 65.9959 1.24945 65.8899 1.10702C65.7839 0.951651 65.6249 0.783332 65.4128 0.602065C66.473 0.627961 67.3741 0.647382 68.1162 0.66033C68.8848 0.673277 69.5209 0.686225 70.0245 0.699173C70.6075 0.71212 71.0846 0.718594 71.4557 0.718594H73.1254C73.735 0.718594 74.5301 0.718594 75.5107 0.718594C76.4913 0.705646 77.7238 0.692699 79.208 0.679751C78.2273 0.79628 77.2997 0.951651 76.4251 1.14587C75.5505 1.34008 74.7686 1.52782 74.0795 1.70909C73.2844 1.9292 72.5423 2.15578 71.8532 2.38884C71.1641 2.64779 70.3955 2.95206 69.5474 3.30164C68.8318 3.59944 67.9969 3.96845 67.0428 4.40867C66.0887 4.83594 65.055 5.33442 63.9419 5.90412C65.1346 7.04351 66.1682 7.98221 67.0428 8.72022C67.9439 9.44529 68.6993 10.0279 69.3089 10.4682C69.998 10.9861 70.581 11.381 71.0581 11.6529C71.5352 11.8989 72.0917 12.1513 72.7278 12.4103C73.2579 12.6304 73.9205 12.8764 74.7156 13.1483C75.5107 13.4073 76.4251 13.6597 77.4587 13.9057L66.1284 14.1776C66.2875 14.0741 66.3802 13.9511 66.4067 13.8086C66.4597 13.6533 66.4862 13.5108 66.4862 13.3814C66.4862 13.2389 66.4597 13.0836 66.4067 12.9153C66.3007 12.7081 66.0224 12.3715 65.5719 11.9053C65.2008 11.504 64.631 10.9407 63.8624 10.2157C63.0938 9.47766 62.0336 8.50659 60.682 7.30246L57.3028 9.03097C57.1702 9.44529 57.104 9.82077 57.104 10.1574C57.104 10.494 57.1305 10.7724 57.1835 10.9925C57.263 11.2644 57.369 11.4975 57.5015 11.6917C57.6606 11.8859 57.8858 12.106 58.1774 12.352C58.4159 12.5721 58.7339 12.8311 59.1315 13.1289C59.5291 13.4267 60.0326 13.7569 60.6422 14.1194C60.0326 14.0417 59.423 13.9899 58.8135 13.964C58.2039 13.9252 57.6473 13.8993 57.1437 13.8863C56.5607 13.8734 56.0041 13.8799 55.474 13.9057C54.9174 13.9316 54.2681 13.9705 53.526 14.0223C52.8899 14.0741 52.1081 14.1388 51.1804 14.2165C50.2528 14.2942 49.1927 14.3913 48 14.5078C48.5831 14.3395 49.0469 14.1582 49.3914 13.964C49.736 13.7698 50.0143 13.5821 50.2263 13.4008C50.4648 13.1936 50.6239 12.9929 50.7034 12.7987C50.7564 12.6304 50.7961 12.2679 50.8226 11.7111C50.8756 11.1544 50.9021 10.507 50.9021 9.76898C50.9286 9.01802 50.9286 8.22822 50.9021 7.39957C50.8756 6.57092 50.8491 5.79406 50.8226 5.069C50.7961 4.34393 50.7564 3.72892 50.7034 3.22396C50.6769 2.70605 50.6504 2.38884 50.6239 2.27231C50.5443 2.09104 50.4383 1.89683 50.3058 1.68967C50.1733 1.5084 49.9878 1.32066 49.7492 1.12644C49.5372 0.919282 49.2589 0.718594 48.9144 0.52438Z" fill="#BDAFE5"/>
</svg>
