<svg width="407" height="407" viewBox="0 0 407 407" fill="none" xmlns="http://www.w3.org/2000/svg">
    <path d="M102.633 170.468L143.748 168.579L136.275 208.734L102.633 170.468Z" fill="#EBEBEB" />
    <path d="M131.136 195.127L115.812 177.698L45.3341 239.665L60.6578 257.093L131.136 195.127Z"
        fill="#EBEBEB" />
    <path d="M270.332 108.417L311.447 106.528L303.975 146.683L270.332 108.417Z" fill="#EBEBEB" />
    <path d="M298.839 133.067L283.516 115.639L213.037 177.605L228.361 195.034L298.839 133.067Z"
        fill="#EBEBEB" />
    <path d="M112.922 117.745L139.295 116.54L134.509 142.303L112.922 117.745Z" fill="#F5F5F5" />
    <path d="M131.209 133.565L121.379 122.384L76.16 162.142L85.9906 173.323L131.209 133.565Z"
        fill="#F5F5F5" />
    <path d="M338.211 119.153L364.593 117.94L359.798 143.704L338.211 119.153Z" fill="#F5F5F5" />
    <path d="M356.502 134.964L346.672 123.783L301.453 163.541L311.284 174.722L356.502 134.964Z"
        fill="#F5F5F5" />
    <path
        d="M278.168 345.046H240.333C239.243 345.046 238.355 344.159 238.355 343.068V333.219C238.355 332.128 239.243 331.241 240.333 331.241H278.168C279.259 331.241 280.146 332.128 280.146 333.219V343.068C280.146 344.159 279.259 345.046 278.168 345.046Z"
        fill="#EBEBEB" />
    <path
        d="M288.215 331.298C288.207 331.257 288.622 331.339 289.232 330.964C289.525 330.777 289.851 330.451 290.014 329.971C290.193 329.491 290.095 328.872 290.111 328.197C290.103 326.821 290.087 325.16 290.079 323.223C290.071 322.254 290.071 321.221 290.062 320.122C290.062 319.568 290.111 319.015 289.802 318.551C289.533 318.087 289.037 317.737 288.475 317.663C278.707 317.672 265.252 317.688 250.388 317.704C249.55 317.688 248.768 318.347 248.646 319.169C248.589 320.016 248.63 320.985 248.622 321.872C248.622 323.687 248.622 325.47 248.622 327.228C248.622 327.668 248.622 328.107 248.622 328.539C248.638 328.97 248.581 329.418 248.679 329.776C248.866 330.533 249.599 331.094 250.356 331.094C252.041 331.094 253.693 331.103 255.305 331.103C261.752 331.119 267.555 331.135 272.439 331.151C277.299 331.176 281.239 331.2 283.99 331.217C285.333 331.233 286.383 331.249 287.132 331.257C287.474 331.265 287.743 331.274 287.946 331.282C288.117 331.282 288.215 331.29 288.215 331.298C288.215 331.306 288.117 331.314 287.938 331.322C287.734 331.331 287.466 331.339 287.124 331.347C286.383 331.355 285.325 331.371 283.982 331.388C281.231 331.404 277.291 331.428 272.431 331.453C267.547 331.469 261.743 331.477 255.297 331.501C253.685 331.501 252.032 331.501 250.339 331.51C249.403 331.51 248.5 330.826 248.272 329.89C248.15 329.41 248.215 328.978 248.198 328.547C248.198 328.115 248.198 327.676 248.198 327.236C248.198 325.478 248.198 323.695 248.198 321.88C248.215 320.96 248.166 320.097 248.231 319.112C248.378 318.095 249.346 317.273 250.388 317.289C265.276 317.297 278.723 317.289 288.524 317.37C289.175 317.46 289.753 317.867 290.054 318.412C290.209 318.681 290.307 318.982 290.331 319.283C290.347 319.593 290.331 319.853 290.339 320.13C290.331 321.229 290.331 322.263 290.323 323.231C290.307 325.16 290.299 326.829 290.29 328.205C290.258 328.88 290.355 329.507 290.152 330.028C289.957 330.541 289.607 330.875 289.297 331.054C288.98 331.241 288.703 331.298 288.516 331.314C288.312 331.314 288.215 331.298 288.215 331.298Z"
        fill="#E0E0E0" />
    <path
        d="M76.3713 97.4033H38.5366C37.4459 97.4033 36.5586 96.5161 36.5586 95.4253V85.5759C36.5586 84.4852 37.4459 83.5979 38.5366 83.5979H76.3713C77.4621 83.5979 78.3494 84.4852 78.3494 85.5759V95.4253C78.3494 96.5242 77.4621 97.4033 76.3713 97.4033Z"
        fill="#F5F5F5" />
    <path
        d="M97.2654 83.5978C97.2573 83.5571 97.6724 83.6385 98.2829 83.2641C98.576 83.0768 98.9016 82.7512 99.0644 82.271C99.2435 81.7907 99.1458 81.1721 99.1621 80.4965C99.1539 79.1208 99.1376 77.4602 99.1295 75.5229C99.1214 74.5543 99.1214 73.5205 99.1132 72.4216C99.1132 71.8681 99.1621 71.3145 98.8527 70.8506C98.5841 70.3866 98.0876 70.0366 97.5259 69.9633C87.7579 69.9714 74.3025 69.9877 59.4389 70.004C58.6004 69.9877 57.819 70.6471 57.6969 71.4692C57.6399 72.3158 57.6806 73.2763 57.6725 74.1717C57.6725 75.9869 57.6725 77.7696 57.6725 79.5278C57.6725 79.9674 57.6725 80.4069 57.6725 80.8383C57.6888 81.2698 57.6318 81.7175 57.7295 82.0756C57.9167 82.8326 58.6493 83.3943 59.4063 83.3943C61.0913 83.3943 62.7437 83.4024 64.3554 83.4024C70.8023 83.4187 76.6061 83.435 81.4901 83.4513C86.3497 83.4757 90.2895 83.5001 93.0408 83.5164C94.3839 83.5327 95.4339 83.549 96.1828 83.5571C96.5247 83.5652 96.7933 83.5734 96.9968 83.5815C97.1678 83.5815 97.2654 83.5897 97.2654 83.5978C97.2654 83.6059 97.1678 83.6141 96.9887 83.6222C96.7852 83.6304 96.5166 83.6385 96.1747 83.6466C95.4339 83.6548 94.3757 83.6711 93.0326 83.6873C90.2813 83.7036 86.3416 83.728 81.482 83.7525C76.598 83.7687 70.7942 83.7769 64.3473 83.8013C62.7356 83.8013 61.0831 83.8013 59.39 83.8094C58.4539 83.8094 57.5504 83.1257 57.3225 82.1896C57.2004 81.7093 57.2655 81.2779 57.2492 80.8465C57.2492 80.4151 57.2492 79.9755 57.2492 79.5359C57.2492 77.7777 57.2492 75.995 57.2492 74.1798C57.2655 73.26 57.2166 72.3972 57.2818 71.4122C57.4283 70.3947 58.3969 69.5726 59.4389 69.5889C74.3269 69.597 87.7742 69.5889 97.5748 69.6703C98.226 69.7598 98.8039 70.1668 99.1051 70.7122C99.2597 70.9808 99.3574 71.282 99.3818 71.5832C99.3981 71.8925 99.3818 72.153 99.39 72.4297C99.3818 73.5286 99.3818 74.5624 99.3737 75.5311C99.3574 77.4602 99.3493 79.1289 99.3411 80.5046C99.3086 81.1802 99.4063 81.807 99.2028 82.328C99.0074 82.8408 98.6574 83.1745 98.3481 83.3536C98.0306 83.5408 97.7538 83.5978 97.5666 83.6141C97.3631 83.6141 97.2654 83.5978 97.2654 83.5978Z"
        fill="#E0E0E0" />
    <path
        d="M370.68 369.694H332.845C331.754 369.694 330.867 368.807 330.867 367.716V357.867C330.867 356.776 331.754 355.889 332.845 355.889H370.68C371.771 355.889 372.658 356.776 372.658 357.867V367.716C372.658 368.807 371.771 369.694 370.68 369.694Z"
        fill="#EBEBEB" />
    <path
        d="M363.004 266.292C362.996 266.251 363.411 266.333 364.021 265.958C364.314 265.771 364.64 265.445 364.803 264.965C364.982 264.485 364.884 263.866 364.9 263.191C364.892 261.815 364.876 260.154 364.868 258.217C364.86 257.248 364.86 256.215 364.852 255.116C364.852 254.562 364.9 254.009 364.591 253.545C364.322 253.081 363.826 252.731 363.264 252.657C353.496 252.666 340.041 252.682 325.177 252.698C324.339 252.682 323.557 253.341 323.435 254.163C323.378 255.01 323.419 255.97 323.411 256.866C323.411 258.681 323.411 260.464 323.411 262.222C323.411 262.661 323.411 263.101 323.411 263.532C323.427 263.964 323.37 264.412 323.468 264.77C323.655 265.527 324.388 266.088 325.145 266.088C326.83 266.088 328.482 266.097 330.094 266.097C336.541 266.113 342.344 266.129 347.228 266.145C352.088 266.17 356.028 266.194 358.779 266.211C360.122 266.227 361.172 266.243 361.921 266.251C362.263 266.259 362.532 266.267 362.735 266.276C362.906 266.276 363.004 266.284 363.004 266.292C363.004 266.3 362.906 266.308 362.727 266.316C362.523 266.324 362.255 266.333 361.913 266.341C361.172 266.349 360.114 266.365 358.771 266.381C356.02 266.398 352.08 266.422 347.22 266.447C342.336 266.463 336.532 266.471 330.086 266.495C328.474 266.495 326.821 266.495 325.128 266.504C324.192 266.504 323.289 265.82 323.061 264.884C322.939 264.403 323.004 263.972 322.987 263.541C322.987 263.109 322.987 262.67 322.987 262.23C322.987 260.472 322.987 258.689 322.987 256.874C323.004 255.954 322.955 255.091 323.02 254.106C323.167 253.089 324.135 252.267 325.177 252.283C340.065 252.291 353.512 252.283 363.313 252.364C363.964 252.454 364.542 252.861 364.843 253.406C364.998 253.675 365.096 253.976 365.12 254.277C365.136 254.587 365.12 254.847 365.128 255.124C365.12 256.223 365.12 257.257 365.112 258.225C365.096 260.154 365.088 261.823 365.079 263.199C365.047 263.874 365.145 264.501 364.941 265.022C364.746 265.535 364.396 265.869 364.086 266.048C363.769 266.235 363.492 266.292 363.305 266.308C363.093 266.308 363.004 266.292 363.004 266.292Z"
        fill="#E0E0E0" />
    <path
        d="M107.14 301.652C107.132 301.611 107.547 301.693 108.158 301.318C108.451 301.131 108.777 300.805 108.939 300.325C109.118 299.845 109.021 299.226 109.037 298.551C109.029 297.175 109.013 295.514 109.005 293.577C108.996 292.608 108.996 291.575 108.988 290.476C108.988 289.922 109.037 289.369 108.728 288.905C108.459 288.441 107.963 288.091 107.401 288.017C97.6329 288.026 84.1775 288.042 69.3139 288.058C68.4754 288.042 67.694 288.701 67.5719 289.523C67.5149 290.37 67.5556 291.33 67.5475 292.226C67.5475 294.041 67.5475 295.824 67.5475 297.582C67.5475 298.022 67.5475 298.461 67.5475 298.893C67.5638 299.324 67.5068 299.772 67.6045 300.13C67.7917 300.887 68.5243 301.448 69.2813 301.448C70.9663 301.448 72.6187 301.457 74.2304 301.457C80.6773 301.473 86.4811 301.489 91.3651 301.505C96.2247 301.53 100.164 301.554 102.916 301.571C104.259 301.587 105.309 301.603 106.058 301.611C106.4 301.619 106.668 301.628 106.872 301.636C107.051 301.636 107.14 301.644 107.14 301.652C107.14 301.66 107.043 301.668 106.864 301.676C106.66 301.685 106.392 301.693 106.05 301.701C105.309 301.709 104.251 301.725 102.908 301.742C100.156 301.758 96.2166 301.782 91.357 301.807C86.473 301.823 80.6692 301.831 74.2223 301.855C72.6106 301.855 70.9581 301.856 69.265 301.864C68.3289 301.864 67.4254 301.18 67.1975 300.244C67.0754 299.764 67.1405 299.332 67.1242 298.901C67.1242 298.469 67.1242 298.03 67.1242 297.59C67.1242 295.832 67.1242 294.049 67.1242 292.234C67.1405 291.314 67.0916 290.451 67.1568 289.466C67.3033 288.449 68.2719 287.627 69.3139 287.643C84.2019 287.651 97.6492 287.643 107.45 287.724C108.101 287.814 108.679 288.221 108.98 288.766C109.135 289.035 109.232 289.336 109.257 289.637C109.273 289.947 109.257 290.207 109.265 290.484C109.257 291.583 109.257 292.617 109.249 293.585C109.232 295.514 109.224 297.183 109.216 298.559C109.184 299.234 109.281 299.861 109.078 300.382C108.882 300.895 108.532 301.229 108.223 301.408C107.906 301.595 107.629 301.652 107.442 301.668C107.238 301.668 107.14 301.652 107.14 301.652Z"
        fill="#E0E0E0" />
    <path
        d="M349.785 86.8375C349.777 86.7968 350.192 86.8782 350.802 86.5038C351.096 86.3166 351.421 85.991 351.584 85.5107C351.763 85.0305 351.665 84.4118 351.682 83.7362C351.673 82.3605 351.657 80.7 351.649 78.7627C351.641 77.794 351.641 76.7602 351.633 75.6613C351.633 75.1078 351.682 74.5543 351.372 74.0903C351.104 73.6263 350.607 73.2763 350.045 73.203C340.277 73.2112 326.822 73.2275 311.958 73.2437C311.12 73.2275 310.339 73.8868 310.216 74.7089C310.159 75.5555 310.2 76.516 310.192 77.4114C310.192 79.2266 310.192 81.0093 310.192 82.7675C310.192 83.2071 310.192 83.6467 310.192 84.0781C310.208 84.5095 310.151 84.9572 310.249 85.3154C310.436 86.0724 311.169 86.634 311.926 86.634C313.611 86.634 315.263 86.6422 316.875 86.6422C323.322 86.6585 329.126 86.6747 334.01 86.691C338.869 86.7154 342.809 86.7399 345.56 86.7561C346.903 86.7724 347.953 86.7887 348.702 86.7968C349.044 86.805 349.313 86.8131 349.516 86.8213C349.687 86.8213 349.785 86.8294 349.785 86.8375C349.785 86.8457 349.687 86.8538 349.508 86.862C349.305 86.8701 349.036 86.8782 348.694 86.8864C347.953 86.8945 346.895 86.9108 345.552 86.9271C342.801 86.9434 338.861 86.9678 334.002 86.9922C329.118 87.0085 323.314 87.0166 316.867 87.041C315.255 87.041 313.603 87.041 311.91 87.0492C310.973 87.0492 310.07 86.3654 309.842 85.4293C309.72 84.9491 309.785 84.5176 309.769 84.0862C309.769 83.6548 309.769 83.2152 309.769 82.7757C309.769 81.0174 309.769 79.2348 309.769 77.4196C309.785 76.4997 309.736 75.6369 309.801 74.652C309.948 73.6345 310.916 72.8123 311.958 72.8286C326.846 72.8367 340.294 72.8286 350.094 72.91C350.745 72.9995 351.323 73.4065 351.625 73.9519C351.779 74.2205 351.877 74.5217 351.901 74.8229C351.918 75.1322 351.901 75.3927 351.91 75.6695C351.901 76.7684 351.901 77.8021 351.893 78.7708C351.877 80.7 351.869 82.3687 351.861 83.7443C351.828 84.42 351.926 85.0467 351.722 85.5677C351.527 86.0805 351.177 86.4143 350.868 86.5933C350.55 86.7806 350.273 86.8375 350.086 86.8538C349.875 86.8538 349.785 86.8375 349.785 86.8375Z"
        fill="#E0E0E0" />
    <path
        d="M201.379 381.717H163.544C162.454 381.717 161.566 380.83 161.566 379.739V369.89C161.566 368.799 162.454 367.912 163.544 367.912H201.379C202.47 367.912 203.357 368.799 203.357 369.89V379.739C203.365 380.83 202.478 381.717 201.379 381.717Z"
        fill="#EBEBEB" />
    <path
        d="M363.004 35.9136H325.169C324.079 35.9136 323.191 35.0263 323.191 33.9356V24.0862C323.191 22.9954 324.079 22.1082 325.169 22.1082H363.004C364.095 22.1082 364.982 22.9954 364.982 24.0862V33.9356C364.982 35.0263 364.095 35.9136 363.004 35.9136Z"
        fill="#F5F5F5" />
    <path
        d="M36.6289 394.131C36.6289 394.123 36.7022 394.114 36.8487 394.114C37.0033 394.106 37.215 394.106 37.4917 394.098C38.0697 394.09 38.9162 394.074 40.0314 394.066C42.2781 394.049 45.5829 394.025 49.8727 393.992C58.4604 393.96 70.9472 393.919 86.5841 393.87L86.3155 394.139C86.2992 383.907 86.2748 372.291 86.2503 359.536V359.21H86.5841C103.8 359.194 123.092 359.169 143.939 359.145L143.548 359.536C143.54 349.312 143.532 338.559 143.532 327.497V327.082H143.947C160.902 327.082 178.875 327.073 197.369 327.073C200.976 327.073 204.565 327.073 208.122 327.073L207.699 327.497C207.699 314.937 207.707 302.653 207.707 290.745V290.329H208.122C231.248 290.346 252.998 290.362 272.754 290.378L272.388 290.745C272.42 267.725 272.453 247.423 272.477 230.663V230.386H272.754C290.092 230.443 303.89 230.484 313.348 230.509C318.069 230.541 321.716 230.566 324.183 230.582C325.412 230.598 326.34 230.614 326.975 230.623C327.284 230.631 327.52 230.639 327.683 230.639C327.837 230.647 327.919 230.655 327.919 230.655C327.919 230.663 327.837 230.671 327.683 230.671C327.52 230.68 327.284 230.68 326.975 230.688C326.34 230.696 325.404 230.712 324.183 230.728C321.716 230.745 318.069 230.769 313.348 230.802C303.881 230.834 290.092 230.875 272.754 230.924L273.031 230.647C273.055 247.415 273.088 267.708 273.12 290.728V291.095H272.754C252.998 291.111 231.24 291.127 208.122 291.143L208.538 290.728C208.538 302.637 208.546 314.92 208.546 327.48V327.904H208.122C204.557 327.904 200.976 327.904 197.369 327.904C178.875 327.896 160.902 327.896 143.947 327.896L144.362 327.48C144.354 338.551 144.346 349.296 144.346 359.519V359.91H143.955C123.108 359.886 103.816 359.869 86.6004 359.845L86.926 359.519C86.9015 372.275 86.8771 383.891 86.8608 394.123V394.391H86.5922C70.9553 394.342 58.4685 394.302 49.8808 394.269C45.5992 394.237 42.2862 394.212 40.0396 394.196C38.9244 394.18 38.0778 394.171 37.4999 394.163C37.215 394.155 37.0033 394.147 36.8568 394.147C36.7022 394.147 36.6289 394.139 36.6289 394.131Z"
        fill="#263238" />
    <path
        d="M52.6421 353.488C54.5631 354.318 55.9795 356.101 56.6876 358.071C57.3958 360.04 57.4609 362.189 57.2249 364.273C56.769 368.303 54.4817 372.364 52.0153 375.58C48.629 372.625 47.8476 367.464 47.6115 364.819C47.2452 360.643 49.1256 352.869 52.6421 353.488Z"
        fill="#4CD685" />
    <path
        d="M55.9543 382.222C55.4089 379.943 56.3613 377.452 58.1033 375.897C59.8534 374.342 62.2872 373.683 64.6234 373.862C65.6979 373.944 66.87 374.261 67.4887 375.148C68.0666 375.979 68.0015 377.134 67.5294 378.03C67.0573 378.925 66.2514 379.593 65.3967 380.13C62.4582 381.978 59.2754 383.223 55.9543 382.222Z"
        fill="#4CD685" />
    <path
        d="M51.6078 394.57C51.5834 394.562 51.6322 394.269 51.7299 393.74C51.8357 393.162 51.9741 392.405 52.1369 391.502C52.5113 389.638 52.9916 386.96 54.4405 384.363C55.8731 381.774 57.8756 379.861 59.5687 378.917C60.4071 378.429 61.1397 378.144 61.6607 377.989C61.913 377.9 62.1247 377.867 62.263 377.835C62.4014 377.802 62.4747 377.794 62.4747 377.802C62.4991 377.867 61.3025 378.087 59.6745 379.088C58.0465 380.065 56.1092 381.953 54.701 384.501C53.2765 387.049 52.7637 389.686 52.3404 391.542C52.1369 392.478 51.9659 393.235 51.8357 393.756C51.7136 394.286 51.6241 394.57 51.6078 394.57Z"
        fill="#263238" />
    <path
        d="M51.7295 359.536C51.7377 359.536 51.754 359.658 51.7702 359.894C51.7865 360.162 51.8028 360.504 51.8354 360.928C51.8842 361.831 51.933 363.134 51.99 364.745C52.0958 367.969 52.1772 372.429 52.1528 377.354C52.1284 382.279 52.0063 386.74 51.8761 389.963C51.8109 391.575 51.7458 392.877 51.6888 393.781C51.6563 394.204 51.64 394.546 51.6156 394.814C51.5993 395.05 51.583 395.173 51.5749 395.173C51.5667 395.173 51.5586 395.05 51.5586 394.806C51.5586 394.538 51.5667 394.196 51.5749 393.764C51.5993 392.828 51.6319 391.534 51.6644 389.947C51.7458 386.723 51.8272 382.263 51.8516 377.346C51.8761 372.421 51.8272 367.969 51.7702 364.745C51.7458 363.158 51.7214 361.864 51.7133 360.928C51.7133 360.504 51.7051 360.154 51.7051 359.886C51.7214 359.658 51.7214 359.536 51.7295 359.536Z"
        fill="#263238" />
    <path
        d="M50.0862 384.672C49.3129 379.804 46.0325 375.401 41.588 373.268C40.4566 372.723 38.9751 372.373 38.0471 373.211C37.111 374.058 37.3227 375.572 37.7785 376.744C39.6751 381.62 44.7789 385.063 50.0129 385.006"
        fill="#4CD685" />
    <path
        d="M42.1332 377.086C42.1414 377.069 42.3937 377.183 42.8496 377.403C43.0775 377.509 43.3542 377.647 43.6636 377.834C43.9647 378.022 44.3392 378.209 44.6973 378.486C45.0636 378.746 45.4788 379.023 45.8776 379.373C46.3009 379.698 46.7079 380.097 47.1393 380.521C47.9778 381.383 48.8162 382.409 49.5325 383.598C50.2407 384.794 50.7535 386.015 51.1117 387.163C51.2745 387.741 51.4291 388.294 51.5105 388.815C51.6245 389.336 51.6652 389.833 51.714 390.28C51.7791 390.728 51.7547 391.143 51.771 391.501C51.7873 391.86 51.7629 392.169 51.7466 392.421C51.7059 392.926 51.6815 393.203 51.657 393.203C51.5919 393.203 51.7059 392.079 51.5105 390.305C51.4535 389.857 51.3966 389.377 51.2745 388.864C51.1849 388.343 51.0221 387.806 50.8593 387.244C50.493 386.121 49.9802 384.924 49.2883 383.752C48.5801 382.588 47.7661 381.571 46.9521 380.716C46.537 380.301 46.1381 379.902 45.7311 379.568C45.3404 379.21 44.9415 378.933 44.5834 378.657C43.1263 377.606 42.1088 377.142 42.1332 377.086Z"
        fill="#263238" />
    <path
        d="M238.973 65.8363L246.087 62.4256C247.495 58.1196 250.076 54.131 253.787 50.9808C264.467 41.9372 280.462 43.2559 289.506 53.9356C298.549 64.6153 297.231 80.6104 286.551 89.6539C275.871 98.6975 259.876 97.3788 250.833 86.6991C247.056 82.2384 245.094 76.8578 244.858 71.4366V71.4529L238.973 65.8363Z"
        fill="white" />
    <path
        d="M238.973 65.8363C238.973 65.8363 239.087 65.9584 239.331 66.1945C239.591 66.4468 239.958 66.805 240.43 67.2771C241.431 68.2539 242.896 69.6703 244.793 71.518C244.825 71.5506 244.882 71.5506 244.915 71.518C244.923 71.5099 244.931 71.4936 244.939 71.4773V71.4611L244.768 71.4448C244.899 74.7008 245.704 79.0313 248.309 83.4106C248.952 84.5013 249.717 85.584 250.588 86.634C251.508 87.6352 252.428 88.7179 253.568 89.6377C255.765 91.5424 258.452 93.1949 261.512 94.3019C264.573 95.4089 268.008 95.9787 271.557 95.7834C275.098 95.5962 278.753 94.6519 282.131 92.8774C285.517 91.1273 288.545 88.4737 290.898 85.2177C293.242 81.9617 294.903 78.0707 295.44 73.9193L295.635 72.3565L295.692 70.7936L295.717 70.0121L295.676 69.2307L295.578 67.6841C295.529 67.1713 295.424 66.6666 295.35 66.1538C295.261 65.6491 295.22 65.1363 295.065 64.6479C294.797 63.6629 294.593 62.6617 294.203 61.7256C292.843 57.9242 290.605 54.5461 287.853 51.8925C285.078 49.247 281.805 47.3341 278.427 46.1864C275.049 45.0386 271.573 44.6479 268.309 44.8921C265.045 45.1282 262.009 45.9991 259.363 47.2364C258.02 47.8306 256.832 48.6039 255.676 49.3365C254.593 50.175 253.519 50.9401 252.615 51.8355C248.928 55.352 246.974 59.2999 245.989 62.385L246.038 62.3361C243.735 63.4676 241.96 64.3386 240.739 64.9328C240.161 65.2177 239.713 65.4375 239.396 65.6003C239.111 65.7631 238.973 65.8363 238.973 65.8363C238.973 65.8363 239.144 65.7631 239.453 65.6165C239.779 65.47 240.234 65.2502 240.829 64.9735C242.041 64.4037 243.816 63.5734 246.12 62.4989C246.144 62.4908 246.16 62.4664 246.168 62.4501C247.178 59.3976 249.14 55.4985 252.811 52.039C253.706 51.1599 254.781 50.411 255.855 49.5807C257.003 48.8644 258.175 48.0993 259.51 47.5213C262.123 46.3085 265.126 45.4619 268.342 45.2421C271.557 45.0142 274.984 45.4049 278.313 46.5445C281.643 47.676 284.858 49.5726 287.585 52.1774C290.287 54.7985 292.485 58.1196 293.82 61.864C294.203 62.7838 294.406 63.7688 294.667 64.7374C294.813 65.2177 294.854 65.7224 294.943 66.2189C295.017 66.7154 295.114 67.2201 295.163 67.7248L295.253 69.247L295.293 70.0121L295.269 70.7773L295.212 72.3158L295.017 73.8542C294.487 77.9405 292.851 81.7663 290.548 84.9735C288.236 88.1725 285.257 90.7936 281.927 92.5192C278.614 94.2693 275.017 95.2136 271.525 95.4008C268.024 95.5962 264.638 95.0508 261.618 93.9682C258.59 92.8855 255.936 91.2657 253.755 89.3935C252.623 88.4899 251.712 87.4236 250.8 86.4387C249.929 85.4049 249.172 84.3385 248.529 83.2641C245.924 78.9499 245.094 74.6601 244.931 71.4285C244.931 71.3797 244.89 71.339 244.842 71.3471C244.801 71.3471 244.768 71.3797 244.76 71.4204V71.4366L244.907 71.3878C242.994 69.597 241.52 68.2132 240.519 67.269C240.023 66.805 239.64 66.455 239.372 66.2026C239.111 65.9666 238.973 65.8363 238.973 65.8363Z"
        fill="#263238" />
    <path
        d="M270.279 86.5364C278.555 86.5364 285.264 79.8271 285.264 71.5507C285.264 63.2743 278.555 56.5649 270.279 56.5649C262.002 56.5649 255.293 63.2743 255.293 71.5507C255.293 79.8271 262.002 86.5364 270.279 86.5364Z"
        fill="#4CD685" />
    <path opacity="0.3"
        d="M270.279 86.5364C278.555 86.5364 285.264 79.8271 285.264 71.5507C285.264 63.2743 278.555 56.5649 270.279 56.5649C262.002 56.5649 255.293 63.2743 255.293 71.5507C255.293 79.8271 262.002 86.5364 270.279 86.5364Z"
        fill="black" />
    <path
        d="M275.942 83.7741C283.603 80.6423 287.274 71.8934 284.143 64.2327C281.011 56.5721 272.262 52.9007 264.601 56.0325C256.941 59.1643 253.269 67.9133 256.401 75.5739C259.533 83.2346 268.282 86.9059 275.942 83.7741Z"
        fill="#4CD685" />
    <path
        d="M277.381 76.9978C281.3 73.0783 281.3 66.7235 277.381 62.804C273.461 58.8845 267.106 58.8845 263.187 62.804C259.267 66.7235 259.267 73.0783 263.187 76.9978C267.106 80.9173 273.461 80.9173 277.381 76.9978Z"
        fill="white" />
    <path
        d="M270.28 74.8066C272.99 74.8066 275.188 72.609 275.188 69.8982C275.188 67.1873 272.99 64.9897 270.28 64.9897C267.569 64.9897 265.371 67.1873 265.371 69.8982C265.371 72.609 267.569 74.8066 270.28 74.8066Z"
        fill="#4CD685" />
    <path d="M280.723 58.9254L280.316 55.7264L283.572 52.2424L283.808 55.6938L280.723 58.9254Z"
        fill="#455A64" />
    <path d="M287.707 56.3775L284.411 56.1089L281.098 59.2916L284.411 59.6498L287.707 56.3775Z"
        fill="#455A64" />
    <path opacity="0.3"
        d="M270.941 69.8248L282.403 61.0743C282.012 60.4964 281.515 59.9103 280.97 59.3242L270.95 69.0434V69.8248H270.941Z"
        fill="black" />
    <path
        d="M283.938 55.2137C282.383 56.7684 280.828 58.3232 279.273 59.8779C276.807 62.3443 274.34 64.8107 271.874 67.2772C271.304 67.847 270.743 68.4086 270.173 68.9784C269.636 69.5157 270.474 70.3459 271.011 69.8087C272.566 68.254 274.121 66.6992 275.675 65.1445C278.142 62.6781 280.608 60.2116 283.075 57.7452C283.645 57.1754 284.206 56.6138 284.776 56.044C285.321 55.5067 284.483 54.6764 283.938 55.2137Z"
        fill="#263238" />
    <path
        d="M197.918 77.5663L201.019 43.1015C201.516 34.5057 206.929 27.6192 215.509 28.3518L216.298 28.4658C224.243 29.6135 229.973 36.6628 229.469 44.6644C228.996 52.1125 228.386 60.342 227.767 64.2818C226.489 72.4462 218.121 72.5358 218.121 72.5358C218.105 72.5358 217.56 77.5256 217.316 79.9432L216.282 85.5679L212.082 83.4434L197.918 77.5663Z"
        fill="#FFBF9D" />
    <path
        d="M218.153 72.2589C218.153 72.2589 212.951 71.8194 207.953 67.5703C207.953 67.5703 209.63 74.0904 217.9 74.53L218.153 72.2589Z"
        fill="#FF9A6C" />
    <path
        d="M225.864 51.7462C225.798 52.3648 225.212 52.8206 224.569 52.7637C223.918 52.7067 223.446 52.1532 223.519 51.5345C223.584 50.9159 224.17 50.46 224.813 50.517C225.457 50.574 225.929 51.1194 225.864 51.7462Z"
        fill="#263238" />
    <path
        d="M227.238 47.7494C227.075 47.8797 226.277 47.0982 225.024 46.9192C223.77 46.7238 222.753 47.2366 222.639 47.0657C222.582 46.9843 222.769 46.7319 223.209 46.4959C223.648 46.2598 224.365 46.0726 225.146 46.1947C225.927 46.3087 226.546 46.6912 226.88 47.0413C227.23 47.3913 227.319 47.6843 227.238 47.7494Z"
        fill="#263238" />
    <path
        d="M214.883 50.2647C214.818 50.8834 214.232 51.3392 213.589 51.2822C212.938 51.2252 212.465 50.6717 212.539 50.0531C212.604 49.4344 213.19 48.9786 213.833 49.0356C214.476 49.0926 214.948 49.6379 214.883 50.2647Z"
        fill="#263238" />
    <path
        d="M214.875 46.2599C214.704 46.3901 213.914 45.6087 212.661 45.4296C211.407 45.2342 210.39 45.747 210.276 45.5761C210.219 45.4947 210.406 45.2424 210.854 45.0144C211.293 44.7784 212.009 44.5912 212.791 44.7133C213.572 44.8272 214.191 45.2179 214.525 45.5598C214.867 45.9098 214.956 46.2029 214.875 46.2599Z"
        fill="#263238" />
    <path
        d="M217.992 56.5652C218 56.4919 218.798 56.4675 220.084 56.4919C220.41 56.5082 220.727 56.4838 220.809 56.2721C220.915 56.0523 220.833 55.686 220.735 55.2872C220.548 54.465 220.345 53.6104 220.141 52.7068C219.327 49.0357 218.782 46.0402 218.928 46.0076C219.075 45.975 219.856 48.9217 220.678 52.5929C220.874 53.4964 221.061 54.3592 221.232 55.1814C221.297 55.564 221.452 56.0117 221.216 56.4675C221.094 56.6954 220.833 56.8338 220.621 56.8582C220.41 56.8908 220.223 56.8664 220.068 56.8582C218.774 56.7524 217.984 56.6384 217.992 56.5652Z"
        fill="#263238" />
    <path
        d="M215.851 42.3853C215.631 42.6783 214.459 42.1655 212.986 41.9213C211.513 41.6445 210.235 41.7259 210.129 41.3759C210.088 41.205 210.381 40.9526 210.935 40.7736C211.488 40.5863 212.318 40.4968 213.206 40.6515C214.093 40.8061 214.834 41.1724 215.298 41.5387C215.762 41.905 215.949 42.2469 215.851 42.3853Z"
        fill="#263238" />
    <path
        d="M227.824 44.0622C227.523 44.3145 226.538 43.8831 225.309 43.7121C224.08 43.5005 223.005 43.6145 222.802 43.2807C222.712 43.1261 222.916 42.8574 223.404 42.6458C223.893 42.4342 224.666 42.3121 225.512 42.4423C226.359 42.5725 227.059 42.9307 227.45 43.2726C227.857 43.6226 227.963 43.9319 227.824 44.0622Z"
        fill="#263238" />
    <path
        d="M200.84 48.9704C200.71 48.889 195.46 46.4958 194.833 52.1124C194.206 57.729 199.977 57.1999 200.002 57.0453C200.034 56.8825 200.84 48.9704 200.84 48.9704Z"
        fill="#FFBF9D" />
    <path
        d="M198.528 54.7255C198.504 54.701 198.423 54.7824 198.252 54.8394C198.081 54.8964 197.796 54.9127 197.519 54.7743C196.949 54.4894 196.559 53.4882 196.64 52.4788C196.681 51.966 196.844 51.4939 197.071 51.1113C197.291 50.7206 197.584 50.4601 197.894 50.4438C198.195 50.4112 198.39 50.6147 198.439 50.7775C198.496 50.9403 198.447 51.0543 198.48 51.0624C198.496 51.0787 198.61 50.981 198.594 50.745C198.585 50.631 198.528 50.4926 198.415 50.3705C198.292 50.2484 198.097 50.167 197.885 50.167C197.446 50.1508 197.014 50.5008 196.762 50.9241C196.493 51.3474 196.298 51.8765 196.249 52.4544C196.16 53.594 196.624 54.7173 197.405 55.0429C197.788 55.1894 198.13 55.108 198.317 54.9941C198.496 54.8557 198.545 54.7336 198.528 54.7255Z"
        fill="#FF9A6C" />
    <path
        d="M241.605 38.1442C241.557 37.8023 241.345 37.5011 241.068 37.2976C240.466 36.8418 239.725 36.8092 239.009 36.7197C237.226 36.4917 235.517 35.8324 234.019 34.8475C234.605 34.6277 235.159 34.3509 235.647 33.9602C236.656 33.1543 237.34 31.8275 237.063 30.574C237.015 30.3379 236.909 30.0856 236.681 29.9879C236.331 29.8332 235.973 30.1588 235.68 30.4112C234.735 31.2496 233.921 31.567 232.684 31.2984C231.919 31.1356 231.186 30.8751 230.625 30.4274C230.6 30.403 230.584 30.3705 230.56 30.3379C230.299 30.0042 230.047 29.6867 229.802 29.3692C227.93 27.0331 226.278 25.3725 224.495 24.412C221.882 22.9956 217.34 22.027 214.402 22.4502C211.455 22.8735 208.622 24.9004 207.898 27.7901C206.449 26.2516 204.039 25.9911 201.996 26.5528L201.947 26.5284C199.684 27.0575 198.187 29.2146 197.291 31.3554C197.242 31.4694 197.202 31.5915 197.153 31.7136C196.282 32.7962 195.175 33.6834 193.897 34.237C193.669 34.3346 193.417 34.4567 193.36 34.7009C193.311 34.937 193.49 35.1568 193.669 35.3196C194.149 35.751 194.727 36.0685 195.346 36.2475C195.085 36.7522 194.792 37.2406 194.45 37.6965C194.157 38.0872 193.807 38.5512 193.978 39.007C194.109 39.357 194.516 39.5442 194.89 39.5361C195.264 39.5198 195.614 39.357 195.956 39.1942C195.647 39.7477 195.338 40.3013 195.028 40.8548C195.802 41.0827 196.624 41.1071 197.413 40.9687C197.641 43.0933 197.552 46.9761 197.926 48.4413C199.416 48.6366 199.798 48.5145 200.515 48.8483C201.451 49.2797 200.881 50.9647 202.208 50.6146C202.884 50.4356 204.145 48.1075 204.438 47.4807C206.367 43.2886 207.369 38.6733 207.369 34.066C208.378 33.2113 209.558 32.5438 210.812 32.1287L210.706 32.202C213.091 31.6647 215.777 31.1763 217.837 32.5031C219.432 33.5288 220.222 35.401 221.329 36.9394C223.421 39.8617 225.969 41.5874 229.526 42.149C229.566 44.6643 229.2 48.7343 229.054 51.0623L231.553 46.6586V46.6749C231.74 46.4225 231.903 46.1621 232.065 45.9016L232.122 45.8202V45.812C232.375 45.3969 232.619 44.9736 232.92 44.5666C232.928 44.5748 232.936 44.5829 232.936 44.591C234.068 45.8365 236.103 44.3631 235.273 42.8979C235.11 42.6049 234.898 42.3444 234.654 42.1165C235.167 42.7188 235.989 43.077 236.77 42.9305C237.552 42.784 238.219 42.0921 238.244 41.3025C238.26 40.7652 237.934 40.2443 237.47 39.9757C238.472 40.171 239.538 40.0652 240.474 39.6663C241.085 39.3733 241.719 38.9012 241.605 38.1442Z"
        fill="#263238" />
    <path
        d="M210.363 29.011C210.38 29.0354 209.997 29.1901 209.452 29.6703C208.914 30.1506 208.279 31.0216 207.881 32.2588C207.677 32.8693 207.522 33.5694 207.433 34.3264C207.343 35.0834 207.311 35.8974 207.27 36.7603C207.229 37.6231 207.189 38.5266 207.026 39.4627C206.945 39.9267 206.831 40.3988 206.676 40.8628C206.521 41.3187 206.342 41.8152 205.935 42.1734C205.618 42.4664 205.129 42.5641 204.73 42.4338C204.332 42.3117 203.99 42.0513 203.754 41.7257C203.298 41.05 203.249 40.2523 203.2 39.5441L203.371 39.5848C203.021 40.1709 202.663 40.7489 202.174 41.1966C201.694 41.6443 201.076 41.8966 200.473 41.8885C200.172 41.8803 199.879 41.7989 199.643 41.6443C199.399 41.4896 199.236 41.2535 199.13 41.0093C199.032 40.7651 199 40.5047 199.041 40.2605C199.081 40.0163 199.203 39.7965 199.374 39.65L199.456 39.7395C198.739 40.3907 198.023 40.7 197.543 40.8628C197.299 40.9442 197.103 40.9849 196.973 41.0093C196.843 41.0338 196.77 41.0419 196.77 41.0338C196.77 41.0256 196.835 41.0093 196.965 40.9768C197.095 40.9442 197.282 40.8872 197.527 40.7977C197.999 40.6186 198.699 40.293 199.382 39.65L199.464 39.7395C199.155 40 199.081 40.5128 199.269 40.9524C199.366 41.1721 199.513 41.3838 199.732 41.514C199.944 41.6524 200.213 41.7257 200.49 41.7257C201.043 41.7338 201.621 41.4896 202.069 41.0663C202.525 40.643 202.875 40.0814 203.225 39.4872L203.371 39.2348L203.395 39.5279C203.444 40.2279 203.501 41.0012 203.925 41.6117C204.136 41.9047 204.446 42.1408 204.796 42.2466C205.146 42.3606 205.544 42.2792 205.821 42.0268C206.171 41.7175 206.35 41.2454 206.505 40.7977C206.66 40.3419 206.765 39.886 206.847 39.422C207.01 38.5022 207.05 37.5987 207.099 36.744C207.14 35.8811 207.181 35.0671 207.278 34.302C207.376 33.5368 207.547 32.8368 207.759 32.21C208.174 30.9564 208.849 30.0855 209.411 29.6133C209.973 29.1412 210.363 29.011 210.363 29.011Z"
        fill="#455A64" />
    <path
        d="M234.882 39.9024C234.882 39.9024 234.857 39.9186 234.809 39.9512C234.752 39.9838 234.678 40.0245 234.589 40.0814C234.491 40.1384 234.369 40.2035 234.214 40.2687C234.06 40.3338 233.889 40.4152 233.685 40.4722C232.879 40.7489 231.618 40.9687 230.096 40.7082C228.59 40.4477 226.831 39.707 225.342 38.3151C223.836 36.9475 222.59 35.0428 221.638 32.9182C221.15 31.8519 220.783 30.7774 220.352 29.7762C219.929 28.775 219.432 27.8307 218.797 27.0656C218.17 26.2923 217.413 25.6899 216.591 25.3562C216.184 25.1852 215.761 25.1038 215.362 25.0713C214.955 25.0469 214.564 25.0876 214.19 25.1608C213.457 25.3155 212.839 25.6411 212.358 25.9992C211.878 26.3574 211.536 26.7481 211.292 27.0981C210.836 27.8145 210.755 28.2947 210.73 28.2784C210.73 28.2784 210.73 28.2459 210.747 28.197C210.763 28.1319 210.787 28.0505 210.812 27.9528C210.877 27.7412 211.007 27.4319 211.227 27.0574C211.463 26.6993 211.805 26.2841 212.293 25.9178C212.774 25.5515 213.4 25.2015 214.157 25.0306C214.532 24.9492 214.939 24.9003 215.362 24.9248C215.785 24.9573 216.225 25.0387 216.648 25.2097C217.495 25.5434 218.284 26.162 218.927 26.9516C219.579 27.7331 220.083 28.6936 220.515 29.7029C220.954 30.7123 221.321 31.7868 221.801 32.8368C222.745 34.9451 223.966 36.8254 225.448 38.1848C226.905 39.5686 228.622 40.3094 230.104 40.578C231.593 40.8547 232.847 40.6594 233.645 40.407C234.467 40.1384 234.874 39.8779 234.882 39.9024Z"
        fill="#455A64" />
    <path
        d="M236.047 36.3778C236.055 36.3941 235.941 36.4511 235.73 36.5487C235.518 36.6546 235.209 36.7685 234.81 36.8906C234.411 37.0127 233.923 37.1185 233.377 37.1837C232.832 37.2406 232.221 37.2651 231.586 37.2162C230.952 37.1592 230.349 37.0371 229.82 36.8906C229.291 36.736 228.827 36.5487 228.453 36.3697C228.078 36.1824 227.785 36.0196 227.598 35.8813C227.403 35.751 227.305 35.6696 227.313 35.6615C227.329 35.6289 227.761 35.9138 228.51 36.2476C228.884 36.4185 229.348 36.5813 229.869 36.7278C230.39 36.8662 230.976 36.972 231.603 37.029C232.23 37.0778 232.824 37.0616 233.361 37.0127C233.898 36.9557 234.379 36.8662 234.777 36.7604C235.559 36.5569 236.031 36.3452 236.047 36.3778Z"
        fill="#455A64" />
    <path
        d="M217.48 60.3989C217.439 60.1873 216.055 60.5617 214.753 59.6582C213.451 58.7465 213.198 57.2406 213.003 57.2813C212.913 57.2895 212.824 57.6802 212.979 58.307C213.125 58.9175 213.565 59.7559 214.362 60.3175C215.16 60.8711 216.047 60.9606 216.625 60.8548C217.211 60.7408 217.513 60.4885 217.48 60.3989Z"
        fill="#263238" />
    <path
        d="M179.357 72.5601C179.357 72.5601 173.895 70.175 169.573 74.7986C165.25 79.4302 149.328 110.387 147.236 116.231C143.785 125.836 151.217 134.05 157.403 134.383C163.59 134.717 187.798 126.927 187.798 126.927L182.532 113.04L167.082 114.278L179.064 90.2157L179.357 72.5601Z"
        fill="#455A64" />
    <path
        d="M205.828 99.813C205.828 99.813 211.787 130.012 214.627 132.454C217.468 134.896 239.878 144.933 239.878 144.933L246.593 134.025L228.783 123.167L228.693 100.244C228.514 93.7731 225.918 89.7275 222.955 87.5623L205.828 99.813Z"
        fill="#455A64" />
    <path
        d="M218.43 79.2268L214.393 84.4446L211.886 77.9733L197.649 68.7344L193.506 72.7148C193.506 72.7148 177.535 73.0242 176.509 73.8056C174.214 75.5394 170.022 101.392 170.022 101.392L161.939 150.151C161.255 152.104 168.044 153.472 171.975 154.432L208.198 159.617C208.198 159.617 212.504 160.635 213.725 157.981C214.71 155.841 216.77 133.317 218.853 121.026C219.407 117.77 219.904 106.146 219.904 106.146L223.933 88.1646L219.57 84.876L218.43 79.2268Z"
        fill="#455A64" />
    <path
        d="M172.697 103.166C172.754 103.191 172.486 103.834 172.005 104.86C171.533 105.885 170.849 107.285 170.068 108.816C169.286 110.354 168.562 111.73 168.025 112.723C167.488 113.716 167.121 114.31 167.064 114.278C167.015 114.253 167.284 113.602 167.756 112.584C168.228 111.559 168.912 110.167 169.685 108.628C170.459 107.098 171.183 105.722 171.728 104.729C172.274 103.736 172.648 103.142 172.697 103.166Z"
        fill="#263238" />
    <path
        d="M211.069 78.1687C211.101 78.2013 210.572 78.7955 209.644 79.7804C208.716 80.7654 207.39 82.141 205.819 83.7365L205.697 83.8586L205.558 83.7527C204.549 82.9794 203.458 82.1166 202.343 81.1886C199.844 79.1048 197.695 77.0861 196.197 75.572C195.448 74.815 194.854 74.1882 194.455 73.7487C194.056 73.3091 193.845 73.0486 193.869 73.0324C193.894 73.0079 194.138 73.2277 194.577 73.6347C195.074 74.1068 195.692 74.6766 196.417 75.3604C197.964 76.8093 200.137 78.7873 202.628 80.863C203.735 81.791 204.817 82.662 205.81 83.4434L205.55 83.4597C207.137 81.8805 208.505 80.5456 209.482 79.6095C210.442 78.6734 211.036 78.1361 211.069 78.1687Z"
        fill="#263238" />
    <path
        d="M222.09 95.3521C222.204 95.3684 221.985 98.3395 221.602 101.986C221.211 105.641 220.804 108.588 220.69 108.58C220.576 108.563 220.796 105.6 221.179 101.946C221.561 98.2907 221.968 95.3358 222.09 95.3521Z"
        fill="#263238" />
    <path
        d="M238.383 130.354C238.383 130.354 242.827 122.874 243.763 123.167C244.699 123.46 245.18 125.405 244.618 126.838C244.056 128.27 242.485 134.017 242.485 134.017L238.383 130.354Z"
        fill="#FFBF9D" />
    <path
        d="M239.862 260.545L235.45 280.448C235.45 280.448 254.449 290.159 253.985 293.911L214.84 288.205L220.448 256.915L239.862 260.545Z"
        fill="#455A64" />
    <g opacity="0.6">
        <path
            d="M223.731 276.549C222.941 276.614 222.265 277.363 222.298 278.16C222.331 278.95 223.088 279.65 223.885 279.593C224.675 279.536 225.513 278.665 225.391 277.884C225.269 277.102 224.333 276.329 223.576 276.573"
            fill="white" />
    </g>
    <g opacity="0.6">
        <path
            d="M214.84 288.205L215.402 285.047L253.008 291.876C253.008 291.876 254.18 292.609 254.14 294.22L214.84 288.205Z"
            fill="white" />
    </g>
    <path
        d="M236.12 280.366C236.079 280.553 235.11 280.464 234.068 280.903C233.01 281.31 232.375 282.051 232.212 281.937C232.041 281.872 232.538 280.781 233.816 280.277C235.086 279.764 236.193 280.203 236.12 280.366Z"
        fill="#263238" />
    <path
        d="M239.886 282.808C239.894 283.003 239.015 283.174 238.217 283.858C237.403 284.518 237.077 285.356 236.89 285.315C236.703 285.315 236.776 284.176 237.785 283.345C238.778 282.499 239.91 282.621 239.886 282.808Z"
        fill="#263238" />
    <path
        d="M241.304 288.115C241.125 288.124 241.036 287.122 241.711 286.178C242.387 285.226 243.356 284.982 243.405 285.153C243.486 285.332 242.802 285.779 242.257 286.569C241.695 287.342 241.5 288.132 241.304 288.115Z"
        fill="#263238" />
    <path
        d="M236.622 275.718C236.508 275.873 235.686 275.458 234.603 275.327C233.52 275.181 232.617 275.384 232.552 275.205C232.47 275.051 233.415 274.497 234.693 274.66C235.962 274.815 236.736 275.588 236.622 275.718Z"
        fill="#263238" />
    <g opacity="0.3">
        <path d="M238.983 264.485L238.202 268.034L219.113 264.338L219.683 261.115L238.983 264.485Z"
            fill="black" />
    </g>
    <path
        d="M177.617 296.548L175.086 316.776C175.086 316.776 194.906 324.664 194.801 328.449L155.289 326.43L157.935 294.75L177.617 296.548Z"
        fill="#455A64" />
    <g opacity="0.6">
        <path
            d="M163.064 313.992C162.282 314.131 161.68 314.945 161.786 315.726C161.891 316.516 162.713 317.134 163.495 317.004C164.276 316.874 165.033 315.93 164.838 315.156C164.643 314.391 163.641 313.707 162.909 314.025"
            fill="white" />
    </g>
    <g opacity="0.6">
        <path
            d="M155.297 326.43L155.565 323.24L193.644 326.52C193.644 326.52 194.882 327.139 194.988 328.75L155.297 326.43Z"
            fill="white" />
    </g>
    <path
        d="M175.744 316.638C175.719 316.833 174.751 316.833 173.75 317.362C172.732 317.867 172.17 318.665 172 318.567C171.829 318.51 172.211 317.387 173.44 316.76C174.661 316.125 175.801 316.459 175.744 316.638Z"
        fill="#263238" />
    <path
        d="M179.724 318.714C179.749 318.901 178.886 319.153 178.161 319.91C177.413 320.643 177.168 321.514 176.981 321.481C176.794 321.498 176.761 320.358 177.681 319.438C178.601 318.51 179.741 318.526 179.724 318.714Z"
        fill="#263238" />
    <path
        d="M181.638 323.866C181.459 323.891 181.28 322.906 181.866 321.896C182.444 320.879 183.388 320.545 183.461 320.716C183.559 320.887 182.924 321.4 182.452 322.23C181.956 323.052 181.833 323.866 181.638 323.866Z"
        fill="#263238" />
    <path
        d="M175.809 311.958C175.712 312.128 174.857 311.778 173.758 311.762C172.667 311.713 171.788 312.006 171.699 311.835C171.601 311.689 172.488 311.046 173.774 311.095C175.069 311.127 175.923 311.819 175.809 311.958Z"
        fill="#263238" />
    <g opacity="0.3">
        <path d="M177.113 300.553L176.673 304.159L157.324 302.263L157.585 299.007L177.113 300.553Z"
            fill="black" />
    </g>
    <path
        d="M158.464 58.2145C159.382 49.9439 153.421 42.4953 145.151 41.5774C136.88 40.6596 129.431 46.6201 128.513 54.8907C127.596 63.1613 133.556 70.61 141.827 71.5279C150.097 72.4457 157.546 66.4851 158.464 58.2145Z"
        fill="#4CD685" />
    <path
        d="M326.857 230.655L311.822 195.751L157.822 49.4832L137.496 71.9414L290.683 217.102L326.857 230.655Z"
        fill="#4CD685" />
    <g opacity="0.7">
        <path
            d="M290.684 217.102C290.92 215.604 292.214 214.57 293.63 215.1C292.108 212.739 292.263 209.418 294.013 207.22C295.755 205.022 298.962 204.111 301.599 205.063C301.038 202.344 302.039 199.357 304.123 197.525C306.215 195.694 309.308 195.091 311.929 196.011L326.858 230.655L290.684 217.102Z"
            fill="white" />
    </g>
    <path
        d="M320.81 216.614C320.81 216.614 313.72 214.978 312.035 225.104L326.858 230.655L320.81 216.614Z"
        fill="#263238" />
    <path opacity="0.3"
        d="M301.597 205.063L148.898 61.335L158.504 50.175L311.821 195.751L311.934 196.011C311.934 196.011 310.42 195.393 308.483 195.621C307.189 195.775 305.626 196.288 304.299 197.379C302.59 198.779 301.8 200.586 301.548 202.108C301.271 203.752 301.597 205.063 301.597 205.063Z"
        fill="black" />
    <path opacity="0.3"
        d="M293.629 215.1L140.06 69.2146L137.512 72.1613L290.682 217.102C290.682 217.102 290.934 214.921 293.083 214.961C293.254 214.969 293.433 215.051 293.629 215.1Z"
        fill="black" />
    <path
        d="M309.68 207.236C309.664 207.253 309.623 207.065 309.355 206.984C309.11 206.895 308.589 206.96 308.37 207.473C308.158 207.953 308.166 208.661 308.345 209.385C308.451 209.744 308.638 210.118 308.964 210.387C309.281 210.655 309.753 210.818 310.193 210.663C310.633 210.525 310.958 210.102 311.162 209.63C311.373 209.157 311.463 208.612 311.536 208.05C311.658 206.935 311.618 205.682 311.235 204.485C311.031 203.899 310.673 203.313 310.071 203.069C309.477 202.825 308.76 202.987 308.223 203.37C307.132 204.2 306.701 205.722 306.571 207.147C306.359 210.077 307.881 212.918 310.087 214.147C310.641 214.432 311.284 214.457 311.821 214.204C312.358 213.96 312.782 213.537 313.123 213.097C313.799 212.194 314.271 211.225 314.589 210.322C315.232 208.49 315.281 206.886 315.224 205.812C315.183 205.275 315.126 204.851 315.077 204.575C315.028 204.29 315.012 204.143 315.012 204.143C315.012 204.143 315.199 204.721 315.305 205.812C315.386 206.895 315.37 208.514 314.735 210.37C314.418 211.298 313.954 212.275 313.27 213.211C312.92 213.667 312.48 214.115 311.902 214.383C311.333 214.668 310.6 214.636 310.006 214.335C307.702 213.057 306.147 210.159 306.359 207.147C306.408 206.398 306.579 205.665 306.839 204.982C307.108 204.306 307.499 203.647 308.093 203.223C308.679 202.8 309.469 202.621 310.144 202.898C310.82 203.175 311.211 203.826 311.414 204.436C311.805 205.69 311.837 206.943 311.707 208.091C311.634 208.661 311.536 209.214 311.308 209.719C311.088 210.208 310.738 210.672 310.234 210.826C309.729 210.989 309.208 210.802 308.874 210.509C308.524 210.216 308.329 209.809 308.223 209.434C308.052 208.669 308.052 207.969 308.288 207.456C308.532 206.911 309.11 206.854 309.363 206.96C309.656 207.049 309.68 207.245 309.68 207.236Z"
        fill="white" />
    <path
        d="M305.75 222.401C305.725 222.393 305.937 222.011 306.124 221.262C306.32 220.513 306.417 219.381 306.206 218.022C306.01 216.654 305.465 215.092 304.773 213.39C304.114 211.689 303.3 209.784 303.194 207.627C303.096 205.478 303.699 203.443 304.659 201.864C305.612 200.269 306.93 199.153 308.127 198.437C309.331 197.721 310.439 197.403 311.196 197.249C311.961 197.094 312.392 197.094 312.392 197.094C312.392 197.102 312.286 197.118 312.083 197.151C311.879 197.184 311.586 197.232 311.212 197.322C310.463 197.501 309.38 197.843 308.2 198.559C307.028 199.276 305.75 200.383 304.822 201.954C303.894 203.508 303.3 205.511 303.397 207.611C303.495 209.719 304.293 211.608 304.944 213.317C305.628 215.018 306.165 216.606 306.344 217.998C306.539 219.381 306.417 220.537 306.189 221.286C305.986 222.035 305.75 222.401 305.75 222.401Z"
        fill="white" />
    <path
        d="M297.357 219.739C297.308 219.707 298.293 219.43 298.847 218.087C299.376 216.785 299.547 214.79 299.628 212.641C299.685 210.476 299.482 208.514 299.254 207.114C299.148 206.414 299.026 205.853 298.953 205.462C298.871 205.071 298.831 204.859 298.847 204.851C298.863 204.851 298.928 205.055 299.034 205.446C299.14 205.828 299.27 206.39 299.4 207.098C299.669 208.498 299.897 210.476 299.84 212.658C299.816 213.748 299.726 214.782 299.596 215.718C299.465 216.654 299.286 217.501 298.985 218.16C298.692 218.828 298.261 219.259 297.927 219.487C297.585 219.699 297.357 219.739 297.357 219.739Z"
        fill="white" />
    <path
        d="M294.875 206.365C294.899 206.357 295.103 206.789 295.355 207.521C295.599 208.254 295.901 209.32 295.754 210.525C295.632 211.738 294.924 212.715 294.24 213.113C293.906 213.325 293.597 213.423 293.377 213.463C293.157 213.504 293.035 213.496 293.035 213.48C293.027 213.439 293.532 213.423 294.15 212.983C294.777 212.568 295.42 211.656 295.534 210.492C295.673 209.336 295.404 208.295 295.2 207.554C294.997 206.829 294.842 206.373 294.875 206.365Z"
        fill="white" />
    <path
        d="M310.545 224.623C310.537 224.623 310.512 224.566 310.471 224.452C310.431 224.338 310.374 224.176 310.309 223.956C310.252 223.736 310.17 223.459 310.203 223.134C310.227 222.8 310.374 222.442 310.577 222.1C310.976 221.384 311.603 220.651 312.221 219.796C312.84 218.942 313.434 217.932 313.963 216.833C315.03 214.627 315.673 212.495 316.137 210.964C316.332 210.297 316.511 209.695 316.682 209.141C316.812 208.71 316.894 208.474 316.902 208.482C316.918 208.482 316.861 208.726 316.764 209.165C316.658 209.605 316.495 210.232 316.283 211.013C315.852 212.56 315.233 214.709 314.151 216.931C313.613 218.038 313.011 219.056 312.376 219.91C311.741 220.773 311.106 221.489 310.699 222.173C310.227 222.841 310.252 223.508 310.382 223.94C310.496 224.371 310.561 224.615 310.545 224.623Z"
        fill="white" />
    <path
        d="M159.367 50.8508L137.951 72.3974C137.649 72.6985 137.153 72.7067 136.852 72.3974L130.209 65.7958C129.908 65.4946 129.9 64.9981 130.209 64.6969L151.626 43.1503C151.927 42.8492 152.423 42.841 152.725 43.1503L159.367 49.7519C159.668 50.0612 159.668 50.5496 159.367 50.8508Z"
        fill="#E0E0E0" />
    <path
        d="M159.367 50.8507C159.359 50.8426 159.416 50.7938 159.481 50.6635C159.538 50.5414 159.603 50.3216 159.513 50.0693C159.432 49.817 159.123 49.6135 158.838 49.3204C158.537 49.0274 158.195 48.7018 157.82 48.3355C157.047 47.5785 156.119 46.6749 155.036 45.6167C154.491 45.0876 153.913 44.5178 153.303 43.9155C153.148 43.7608 152.993 43.6143 152.839 43.4596C152.668 43.2968 152.546 43.1422 152.366 43.1015C152.187 43.0445 151.984 43.077 151.829 43.1829C151.691 43.2887 151.504 43.5003 151.349 43.655C145.96 49.1006 138.553 56.5813 130.364 64.8515C130.169 65.0388 130.144 65.3644 130.307 65.576C130.502 65.7958 130.804 66.0725 131.04 66.3167C131.552 66.8214 132.057 67.3261 132.562 67.8308C133.563 68.832 134.556 69.8169 135.533 70.7856C136.021 71.274 136.502 71.7543 136.982 72.2264C137.161 72.4299 137.446 72.4706 137.666 72.3648C137.723 72.3403 137.771 72.2996 137.812 72.2589L137.991 72.0799L138.341 71.7298C139.277 70.7937 140.189 69.8821 141.076 68.9867C144.642 65.4213 147.857 62.2142 150.559 59.5117C153.254 56.8418 155.443 54.6765 156.982 53.1462C157.731 52.4218 158.317 51.8438 158.74 51.4287C158.927 51.2496 159.082 51.1031 159.204 50.9891C159.302 50.8996 159.359 50.8507 159.367 50.8507C159.375 50.8589 159.326 50.9159 159.228 51.0217C159.115 51.1438 158.968 51.2984 158.789 51.4938C158.374 51.9252 157.804 52.5113 157.088 53.2683C155.574 54.8149 153.417 57.0209 150.763 59.7233C148.077 62.4502 144.886 65.6737 141.345 69.2634C140.458 70.1588 139.546 71.0786 138.618 72.0147L138.268 72.3648L138.089 72.5438C138.016 72.6171 137.926 72.6822 137.837 72.7311C137.462 72.9346 136.949 72.8287 136.681 72.5194C136.2 72.0473 135.72 71.567 135.232 71.0786C134.255 70.11 133.262 69.125 132.261 68.1238C131.756 67.6273 131.251 67.1226 130.738 66.6179C130.478 66.3493 130.242 66.1458 129.957 65.8202C129.68 65.4458 129.729 64.876 130.063 64.5504C138.284 56.3208 145.724 48.8646 151.137 43.4433C151.325 43.2724 151.439 43.1177 151.666 42.9387C151.894 42.784 152.196 42.7433 152.448 42.8247C152.725 42.9061 152.887 43.1177 153.034 43.2643C153.189 43.4189 153.343 43.5736 153.498 43.7282C154.1 44.3387 154.67 44.9167 155.207 45.4539C156.266 46.5284 157.185 47.4564 157.942 48.2215C158.309 48.596 158.642 48.9378 158.935 49.239C159.204 49.5402 159.513 49.7518 159.603 50.053C159.692 50.3461 159.603 50.574 159.53 50.6961C159.432 50.8182 159.367 50.8507 159.367 50.8507Z"
        fill="#263238" />
    <path
        d="M132.78 62.4178C132.862 62.3364 134.652 63.9074 136.769 65.9343C138.893 67.9612 140.546 69.6787 140.473 69.7601C140.391 69.8415 138.6 68.2705 136.476 66.2436C134.359 64.2168 132.699 62.4992 132.78 62.4178Z"
        fill="#263238" />
    <path
        d="M140.686 53.952C140.767 53.8625 142.623 55.4905 144.919 57.4766C147.214 59.4709 149.078 61.0745 149.005 61.1722C148.932 61.2617 146.937 59.7965 144.642 57.8022C142.338 55.7998 140.613 54.0334 140.686 53.952Z"
        fill="#263238" />
    <path
        d="M158.153 51.9821C158.071 52.0635 156.24 50.4925 154.058 48.4657C151.877 46.4388 150.175 44.7213 150.257 44.6399C150.33 44.5503 152.17 46.1295 154.351 48.1563C156.525 50.1832 158.234 51.9007 158.153 51.9821Z"
        fill="#263238" />
    <path
        d="M207.343 98.8442C207.343 98.8442 200.09 99.6256 197.917 99.935C195.743 100.244 192.813 100.838 191.804 102.564C191.389 103.264 185.031 112.568 185.031 112.568L182.605 113.252L186.488 123.932L193.057 120.668C193.057 120.668 195.288 118.169 197.07 115.8C198.853 113.439 199.39 112.576 199.39 112.576C199.39 112.576 205.894 112.878 207.213 111.754C207.937 111.136 207.498 110.037 207.498 110.037L200.408 109.41C200.408 109.41 208.116 109.385 209.394 108.539C209.508 108.466 209.606 108.384 209.695 108.295C210.436 107.554 209.858 106.276 208.808 106.268L200.513 106.211C200.513 106.211 210.037 105.348 210.249 104.282C210.29 104.094 210.306 103.924 210.314 103.761C210.355 103.077 209.801 102.507 209.117 102.532L201.344 102.776C201.344 102.776 208.865 101.571 208.93 100.521C209.069 98.5267 207.343 98.8442 207.343 98.8442Z"
        fill="#FFBF9D" />
    <path
        d="M158.195 119.479C160.141 116.508 163.535 114.628 167.076 114.286C167.418 114.253 182.892 112.601 182.892 112.601L187.63 127.416L164.903 133.333"
        fill="#455A64" />
    <path
        d="M164.911 133.333C164.911 133.325 165.057 133.268 165.342 133.187C165.66 133.097 166.075 132.975 166.596 132.829C167.735 132.519 169.323 132.08 171.309 131.542C175.379 130.46 181.044 128.962 187.589 127.228L187.45 127.489C186.563 124.721 185.603 121.734 184.609 118.632C183.958 116.589 183.323 114.603 182.713 112.682L182.933 112.829C179.172 113.219 175.647 113.586 172.456 113.919C170.869 114.082 169.363 114.237 167.963 114.375C166.555 114.489 165.293 114.693 164.178 115.092C161.948 115.857 160.434 117.07 159.522 117.973C158.61 118.901 158.244 119.52 158.211 119.495C158.203 119.487 158.293 119.332 158.48 119.048C158.667 118.763 158.977 118.356 159.416 117.867C160.312 116.923 161.826 115.645 164.089 114.831C165.204 114.4 166.531 114.18 167.931 114.05C169.331 113.895 170.828 113.724 172.416 113.553C175.598 113.203 179.123 112.821 182.884 112.414L183.055 112.397L183.104 112.56C183.722 114.481 184.357 116.475 185.008 118.51C185.993 121.612 186.954 124.607 187.833 127.375L187.898 127.578L187.686 127.635C181.117 129.312 175.444 130.761 171.366 131.803C169.371 132.3 167.768 132.69 166.628 132.975C166.099 133.097 165.684 133.195 165.358 133.268C165.065 133.317 164.911 133.341 164.911 133.333Z"
        fill="#263238" />
    <path
        d="M243.044 130.102C243.044 130.102 247.602 128.547 248.807 129.369C250.012 130.191 250.419 131.518 250.419 131.518C250.419 131.518 253.203 131.542 252.372 134.448C252.372 134.448 254.814 134.937 254.074 137.786C254.074 137.786 255.864 137.737 255.01 140.089C254.155 142.442 250.5 147.139 249.662 147.774C247.92 149.084 247.439 147.008 247.863 146.178C248.286 145.348 250.679 140.781 250.679 140.781C250.679 140.781 246.536 147.301 245.136 146.211C244.338 145.592 244.509 144.632 245.567 142.719C246.3 141.392 247.643 138.771 247.643 138.771L244.387 142.792C243.776 143.541 242.547 143.248 242.384 142.295C242.327 141.962 242.36 141.555 242.547 141.074C243.321 139.088 244.957 136.679 244.957 136.679L242.311 139.275C241.717 139.862 240.732 139.813 240.219 139.153C239.902 138.738 239.723 138.217 240.016 137.623C240.74 136.166 244.778 131.925 244.778 131.925L243.044 130.102Z"
        fill="#FFBF9D" />
    <path
        d="M164.652 151.478C164.652 151.478 160.875 170.444 164.717 178.706C168.559 186.976 178.636 190.94 189.121 194.156C203.129 198.453 227.33 211.771 227.33 211.771C227.33 211.771 224.196 225.584 222.128 233.846C220.142 241.783 214.599 270.672 214.599 270.672L240.069 274.18L258.229 208.832C258.229 208.832 263.3 195.409 252.279 188.751C242.836 183.044 209.438 160.505 209.438 160.505L206.849 154.514L164.652 151.478Z"
        fill="#263238" />
    <path
        d="M165.114 174.058L169.86 184.925L163.413 236.524C163.413 236.524 157.894 253.488 156.673 262.442C155.452 271.396 152.766 307.456 152.766 307.456H177.731C177.731 307.456 181.598 263.582 189.094 250.403C194.996 240.024 199.009 221.962 199.253 220.781C199.497 219.601 208.199 190.696 208.199 190.696L196.005 165.6L165.114 174.058Z"
        fill="#263238" />
    <path
        d="M236.142 205.739C236.191 205.861 233.887 206.667 231.454 208.368C229.003 210.053 227.457 211.941 227.351 211.852C227.31 211.819 227.644 211.306 228.303 210.566C228.963 209.825 229.964 208.889 231.209 208.018C232.455 207.155 233.684 206.544 234.604 206.178C235.524 205.82 236.126 205.69 236.142 205.739Z"
        fill="#455A64" />
    <path
        d="M240.067 274.196C240.067 274.196 239.913 274.188 239.62 274.155C239.31 274.115 238.871 274.066 238.309 273.993C237.137 273.838 235.436 273.618 233.254 273.333C228.842 272.739 222.477 271.884 214.581 270.826L214.426 270.802L214.459 270.647C215.9 263.101 217.625 254.123 219.677 244.143C220.19 241.652 220.727 239.088 221.313 236.483C221.923 233.879 222.542 231.225 223.177 228.514C224.447 223.101 225.774 217.485 227.125 211.722L227.231 211.95C225.358 210.932 223.348 209.858 221.313 208.791C215.639 205.828 210.047 203.052 204.561 200.537C199.074 198.038 193.71 195.759 188.419 194.131C183.128 192.479 178.122 190.672 173.84 188.173C171.708 186.919 169.762 185.486 168.151 183.834C166.539 182.19 165.261 180.326 164.439 178.38C163.592 176.427 163.315 174.408 163.096 172.527C163.006 171.583 162.925 170.663 162.917 169.776C162.868 168.881 162.884 168.018 162.892 167.188C162.941 163.85 163.218 160.985 163.494 158.657C163.779 156.329 164.064 154.53 164.284 153.309C164.398 152.715 164.488 152.259 164.545 151.925C164.61 151.616 164.65 151.461 164.65 151.461C164.65 151.461 164.634 151.624 164.585 151.933C164.536 152.259 164.463 152.723 164.365 153.317C164.178 154.538 163.91 156.337 163.657 158.665C163.405 160.993 163.153 163.85 163.128 167.18C163.128 168.01 163.12 168.873 163.169 169.76C163.185 170.647 163.267 171.559 163.364 172.495C163.592 174.351 163.877 176.353 164.715 178.258C165.538 180.163 166.791 181.986 168.387 183.598C169.982 185.218 171.903 186.626 174.028 187.863C178.277 190.33 183.267 192.12 188.549 193.757C193.865 195.385 199.253 197.656 204.748 200.155C210.234 202.67 215.843 205.446 221.516 208.409C223.551 209.475 225.57 210.541 227.442 211.567L227.581 211.64L227.548 211.795C226.189 217.566 224.862 223.183 223.584 228.596C222.949 231.298 222.322 233.952 221.704 236.557C221.117 239.162 220.572 241.709 220.051 244.208C217.984 254.18 216.217 263.15 214.744 270.688L214.622 270.517C222.509 271.632 228.867 272.527 233.271 273.154C235.452 273.472 237.145 273.716 238.317 273.887C238.879 273.976 239.319 274.041 239.628 274.09C239.921 274.155 240.067 274.196 240.067 274.196Z"
        fill="#455A64" />
</svg>